<svg width="32" height="32" viewBox="0 0 32 32" fill="none" xmlns="http://www.w3.org/2000/svg">
<path opacity="0.25" fill-rule="evenodd" clip-rule="evenodd" d="M11.5 10.2499V9C11.5 8.58579 11.8358 8.25 12.25 8.25C12.6642 8.25 13 8.58579 13 9V10.2499C13 10.6641 12.6642 10.9999 12.25 10.9999C11.8358 10.9999 11.5 10.6641 11.5 10.2499ZM10.75 12.25L9.75 12.25C9.33579 12.25 9 11.9142 9 11.5C9 11.0858 9.33579 10.75 9.75 10.75H10.75C11.1642 10.75 11.5 11.0858 11.5 11.5C11.5 11.9142 11.1642 12.25 10.75 12.25ZM13.75 12.25L14.75 12.25C15.1642 12.25 15.5 11.9142 15.5 11.5C15.5 11.0858 15.1642 10.75 14.75 10.75L13.75 10.75C13.3358 10.75 13 11.0858 13 11.5C13 11.9142 13.3358 12.25 13.75 12.25ZM11.5 13.75V12.75C11.5 12.3358 11.8358 12 12.25 12C12.6642 12 13 12.3358 13 12.75V13.75C13 14.1642 12.6642 14.5 12.25 14.5C11.8358 14.5 11.5 14.1642 11.5 13.75ZM19 10.2499V9C19 8.58579 19.3358 8.25 19.75 8.25C20.1642 8.25 20.5 8.58579 20.5 9V10.2499C20.5 10.6641 20.1642 10.9999 19.75 10.9999C19.3358 10.9999 19 10.6641 19 10.2499ZM18.25 12.25L17.25 12.25C16.8358 12.25 16.5 11.9142 16.5 11.5C16.5 11.0858 16.8358 10.75 17.25 10.75H18.25C18.6642 10.75 19 11.0858 19 11.5C19 11.9142 18.6642 12.25 18.25 12.25ZM21.25 12.25L22.25 12.25C22.6642 12.25 23 11.9142 23 11.5C23 11.0858 22.6642 10.75 22.25 10.75L21.25 10.75C20.8358 10.75 20.5 11.0858 20.5 11.5C20.5 11.9142 20.8358 12.25 21.25 12.25ZM19 13.75V12.75C19 12.3358 19.3358 12 19.75 12C20.1642 12 20.5 12.3358 20.5 12.75V13.75C20.5 14.1642 20.1642 14.5 19.75 14.5C19.3358 14.5 19 14.1642 19 13.75ZM5.5 18.25C5.91421 18.25 6.25 17.9142 6.25 17.5C6.25 17.0858 5.91421 16.75 5.5 16.75C5.08579 16.75 4.75 17.0858 4.75 17.5C4.75 17.9142 5.08579 18.25 5.5 18.25ZM5.5 19.75C6.74264 19.75 7.75 18.7426 7.75 17.5C7.75 16.2574 6.74264 15.25 5.5 15.25C4.25736 15.25 3.25 16.2574 3.25 17.5C3.25 18.7426 4.25736 19.75 5.5 19.75ZM27.25 17.5C27.25 17.9142 26.9142 18.25 26.5 18.25C26.0858 18.25 25.75 17.9142 25.75 17.5C25.75 17.0858 26.0858 16.75 26.5 16.75C26.9142 16.75 27.25 17.0858 27.25 17.5ZM28.75 17.5C28.75 18.7426 27.7426 19.75 26.5 19.75C25.2574 19.75 24.25 18.7426 24.25 17.5C24.25 16.2574 25.2574 15.25 26.5 15.25C27.7426 15.25 28.75 16.2574 28.75 17.5Z" fill="black"/>
</svg>
