<svg width="20" height="20" viewBox="0 0 20 20" fill="none" xmlns="http://www.w3.org/2000/svg">
<path fill-rule="evenodd" clip-rule="evenodd" d="M15.6257 5.44345C15.9381 5.13103 15.9381 4.6245 15.6257 4.31208C15.3133 3.99966 14.8067 3.99966 14.4943 4.31208L9.96869 8.8377L5.47776 4.34677C5.16534 4.03435 4.6588 4.03435 4.34639 4.34677C4.03397 4.65919 4.03397 5.16572 4.34639 5.47814L8.83732 9.96908L4.31198 14.4944C3.99956 14.8068 3.99956 15.3134 4.31198 15.6258C4.6244 15.9382 5.13093 15.9382 5.44335 15.6258L9.96869 11.1004L14.5287 15.6605C14.8411 15.9729 15.3477 15.9729 15.6601 15.6605C15.9725 15.3481 15.9725 14.8415 15.6601 14.5291L11.1001 9.96908L15.6257 5.44345Z" fill="white"/>
</svg>
