<svg width="503" height="372" viewBox="0 0 503 372" fill="none" xmlns="http://www.w3.org/2000/svg">
          <path d="M6.4032 66.1867C8.38987 66.1867 9.81653 64.8 9.81653 63C9.81653 61.2267 8.53654 59.9067 6.77654 59.9067C5.90987 59.9067 5.10987 60.2533 4.69654 60.7467L5.22987 57.6533H9.0032V56.6667H4.26987L3.38987 61.92H4.53654C4.93654 61.3467 5.6032 60.8933 6.5232 60.8933C7.77654 60.8933 8.62987 61.8533 8.62987 63.0267C8.62987 64.28 7.7632 65.2 6.4032 65.2C5.30987 65.2 4.58987 64.56 4.34987 63.6667H3.2032C3.4832 65.28 4.8432 66.1867 6.4032 66.1867ZM15.1502 66.1867C17.2302 66.1867 18.4702 64.8533 18.4702 63.0533V59.6133C18.4702 57.8133 17.2302 56.48 15.1502 56.48C13.0835 56.48 11.8302 57.8133 11.8302 59.6133V63.0533C11.8302 64.8533 13.0835 66.1867 15.1502 66.1867ZM15.1502 65.2C13.7902 65.2 13.0435 64.36 13.0435 63.08V59.5867C13.0435 58.3067 13.7902 57.4667 15.1502 57.4667C16.5102 57.4667 17.2702 58.3067 17.2702 59.5867V63.08C17.2702 64.36 16.5102 65.2 15.1502 65.2Z" fill="black"></path>
          <path d="M6.34987 14.1867C8.25654 14.1867 9.65654 12.72 9.65654 11.0133C9.65654 9.2 8.38987 7.93333 6.7232 7.93333C5.9632 7.93333 5.37654 8.18667 4.94987 8.68V8.66667L7.6432 4.66667H6.34987L4.02987 8.26667C3.50987 9.06667 3.0432 9.94667 3.0432 11.04C3.0432 12.8533 4.37654 14.1867 6.34987 14.1867ZM6.33654 13.2267C5.02987 13.2267 4.21654 12.3067 4.21654 11.0667C4.21654 9.8 5.1232 8.86667 6.37654 8.86667C7.6832 8.86667 8.46987 9.8 8.46987 11.04C8.46987 12.28 7.61654 13.2267 6.33654 13.2267ZM14.8637 14.1867C16.9437 14.1867 18.1837 12.8533 18.1837 11.0533V7.61333C18.1837 5.81333 16.9437 4.48 14.8637 4.48C12.7971 4.48 11.5437 5.81333 11.5437 7.61333V11.0533C11.5437 12.8533 12.7971 14.1867 14.8637 14.1867ZM14.8637 13.2C13.5037 13.2 12.7571 12.36 12.7571 11.08V7.58667C12.7571 6.30667 13.5037 5.46667 14.8637 5.46667C16.2237 5.46667 16.9837 6.30667 16.9837 7.58667V11.08C16.9837 12.36 16.2237 13.2 14.8637 13.2Z" fill="black"></path>
          <path d="M43.3595 14L44.5862 14V5.69333L47.3862 5.69333V4.66667L40.5595 4.66667V5.69333L43.3595 5.69333V14ZM50.3528 14.16C51.8061 14.16 52.9661 13.28 53.1928 12.04L52.1261 12.04C51.9128 12.7467 51.3261 13.2667 50.3528 13.2667C49.0061 13.2667 48.4461 12.36 48.4461 11.2667V11.04L53.2594 11.04V9.97333C53.2594 8.30667 52.2861 6.98667 50.3128 6.98667C48.3528 6.98667 47.2861 8.24 47.2861 10.0933V11.16C47.2861 13.0267 48.5394 14.16 50.3528 14.16ZM48.4461 10.1467V9.97333C48.4461 8.78667 48.9394 7.88 50.3128 7.88C51.5661 7.88 52.1394 8.72 52.1394 9.86667V10.1467H48.4461ZM57.5619 14.16C59.1886 14.16 60.3886 13.2533 60.3886 12.0133C60.3886 11.0267 59.7886 10.5067 58.7353 10.2533L56.6419 9.74667C56.1753 9.64 55.9619 9.37333 55.9619 8.93333C55.9619 8.24 56.5886 7.86667 57.4819 7.86667C58.4553 7.86667 59.0019 8.38667 59.0019 9.16V9.21333H60.0686V9.14667C60.0686 7.85333 58.9753 6.98667 57.4953 6.98667C55.9619 6.98667 54.8553 7.68 54.8553 9C54.8553 9.92 55.4286 10.52 56.4553 10.7467L58.4819 11.2133C59.0019 11.3333 59.2819 11.64 59.2819 12.0933C59.2819 12.8933 58.5619 13.28 57.5753 13.28C56.5219 13.28 55.7753 12.7733 55.7753 11.9733V11.92H54.6953V12C54.6953 13.36 55.8819 14.16 57.5619 14.16ZM64.3166 14H65.2633V13.0267H64.57C63.8633 13.0267 63.6366 12.76 63.6366 12.12V8.12H65.3166V7.14667H63.6366V5.2L62.4366 5.2V7.14667H61.3166V8.12H62.4366V12.1467C62.4366 13.32 62.9966 14 64.3166 14ZM73.193 14.1867C75.2063 14.1867 76.713 13.1067 76.713 11.3867C76.713 10.1733 75.9263 9.4 74.7263 9.08L72.0596 8.37333C71.313 8.17333 70.9796 7.76 70.9796 7.04C70.9796 6 71.833 5.44 73.073 5.44C74.4463 5.44 75.2196 6.17334 75.2196 7.2V7.4L76.353 7.4V7.17333C76.353 5.57333 75.0196 4.48 73.073 4.48C71.113 4.48 69.793 5.46667 69.793 7.13333C69.793 8.28 70.3396 9.04 71.6996 9.38667L74.2996 10.0667C75.113 10.28 75.5263 10.7733 75.5263 11.48C75.5263 12.6 74.6463 13.2267 73.2063 13.2267C71.7263 13.2267 70.833 12.4667 70.833 11.36V11.1467H69.673V11.3867C69.673 13.12 71.153 14.1867 73.193 14.1867ZM81.3042 14.16C83.2642 14.16 84.3976 12.8267 84.3976 11.12V10.0267C84.3976 8.33333 83.2642 6.98667 81.3042 6.98667C79.3309 6.98667 78.1976 8.33333 78.1976 10.0267V11.12C78.1976 12.8267 79.3309 14.16 81.3042 14.16ZM81.3042 13.2133C80.0242 13.2133 79.3576 12.3467 79.3576 11.1333V10.0133C79.3576 8.81333 80.0242 7.94667 81.3042 7.94667C82.5709 7.94667 83.2376 8.81333 83.2376 10.0133V11.1333C83.2376 12.3467 82.5709 13.2133 81.3042 13.2133ZM86.2014 14L87.4014 14V4.26667H86.2014V14ZM91.2668 14H92.5202L95.0002 7.14667H93.8135L91.8935 12.8L89.9735 7.14667H88.8002L91.2668 14ZM98.9074 14.16C100.361 14.16 101.521 13.28 101.747 12.04H100.681C100.467 12.7467 99.8808 13.2667 98.9074 13.2667C97.5608 13.2667 97.0008 12.36 97.0008 11.2667V11.04H101.814V9.97333C101.814 8.30667 100.841 6.98667 98.8674 6.98667C96.9074 6.98667 95.8408 8.24 95.8408 10.0933V11.16C95.8408 13.0267 97.0941 14.16 98.9074 14.16ZM97.0008 10.1467V9.97333C97.0008 8.78667 97.4941 7.88 98.8674 7.88C100.121 7.88 100.694 8.72 100.694 9.86667V10.1467H97.0008ZM106.633 14H107.86V10.68H110.526L112.38 14H113.793L111.78 10.4933C113.02 10.0667 113.753 8.98667 113.753 7.68C113.753 6 112.646 4.66667 110.566 4.66667L106.633 4.66667V14ZM107.86 9.70667V5.66667L110.406 5.66667C111.793 5.66667 112.526 6.52 112.526 7.68C112.526 8.84 111.82 9.70667 110.406 9.70667H107.86ZM117.738 14.16C118.792 14.16 119.698 13.6667 120.005 13.2V14H121.152V9.49333C121.152 8.08 120.098 6.98667 118.392 6.98667C117.018 6.98667 116.032 7.69333 115.672 8.86667H116.778C117.032 8.30667 117.552 7.93333 118.365 7.93333C119.378 7.93333 119.952 8.6 119.952 9.46667V10.6533C119.592 10.28 118.885 9.86667 117.872 9.86667C116.232 9.86667 115.138 10.6533 115.138 12.0133C115.138 13.28 116.138 14.16 117.738 14.16ZM118.005 13.3867C117.018 13.3867 116.285 12.88 116.285 12.0133C116.285 11.1333 116.992 10.64 118.058 10.64C119.032 10.64 119.952 11.1867 119.952 11.9867C119.952 12.8 119.018 13.3867 118.005 13.3867ZM125.462 14H126.409V13.0267H125.716C125.009 13.0267 124.782 12.76 124.782 12.12V8.12H126.462V7.14667L124.782 7.14667V5.2H123.582V7.14667H122.462V8.12H123.582V12.1467C123.582 13.32 124.142 14 125.462 14ZM130.73 14.16C132.184 14.16 133.344 13.28 133.57 12.04H132.504C132.29 12.7467 131.704 13.2667 130.73 13.2667C129.384 13.2667 128.824 12.36 128.824 11.2667V11.04H133.637V9.97333C133.637 8.30667 132.664 6.98667 130.69 6.98667C128.73 6.98667 127.664 8.24 127.664 10.0933V11.16C127.664 13.0267 128.917 14.16 130.73 14.16ZM128.824 10.1467V9.97333C128.824 8.78667 129.317 7.88 130.69 7.88C131.944 7.88 132.517 8.72 132.517 9.86667V10.1467H128.824ZM139.883 15.7867H141.043C139.949 13.4667 139.469 11.6667 139.469 9.68C139.469 7.69333 139.949 5.89333 141.043 3.57333H139.883C138.789 5.64 138.269 7.52 138.269 9.68C138.269 11.84 138.789 13.72 139.883 15.7867ZM144.158 9.73333C145.425 9.73333 146.212 8.90667 146.212 7.72V6.57333C146.212 5.38667 145.425 4.56 144.158 4.56C142.892 4.56 142.105 5.38667 142.105 6.57333V7.72C142.105 8.90667 142.892 9.73333 144.158 9.73333ZM144.225 14L145.132 14L149.958 4.66667H149.065L144.225 14ZM144.158 9C143.398 9 142.985 8.50667 142.985 7.78667V6.50667C142.985 5.78667 143.398 5.29333 144.158 5.29333C144.918 5.29333 145.332 5.78667 145.332 6.50667V7.78667C145.332 8.50667 144.918 9 144.158 9ZM150.025 14.1067C151.292 14.1067 152.078 13.28 152.078 12.0933V10.9467C152.078 9.76 151.292 8.93333 150.025 8.93333C148.758 8.93333 147.972 9.76 147.972 10.9467V12.0933C147.972 13.28 148.758 14.1067 150.025 14.1067ZM150.025 13.3733C149.252 13.3733 148.838 12.88 148.838 12.16V10.88C148.838 10.16 149.252 9.66667 150.025 9.66667C150.785 9.66667 151.198 10.16 151.198 10.88V12.16C151.198 12.88 150.785 13.3733 150.025 13.3733ZM153.061 15.7867L154.221 15.7867C155.301 13.72 155.834 11.84 155.834 9.68C155.834 7.52 155.301 5.64 154.221 3.57333H153.061C154.141 5.89333 154.634 7.69333 154.634 9.68C154.634 11.6667 154.141 13.4667 153.061 15.7867Z" fill="black"></path>
          <path d="M400.43 319H401.657V310.693H404.457V309.667H397.63V310.693H400.43V319ZM405.08 319H406.267V315.68C406.267 314.04 407.054 313.24 408.32 313.24H408.56V312.107H408.387C407.2 312.107 406.44 312.627 406.2 313.667V312.147H405.08V319ZM411.827 319.16C412.88 319.16 413.787 318.667 414.093 318.2V319H415.24V314.493C415.24 313.08 414.187 311.987 412.48 311.987C411.107 311.987 410.12 312.693 409.76 313.867H410.867C411.12 313.307 411.64 312.933 412.453 312.933C413.467 312.933 414.04 313.6 414.04 314.467V315.653C413.68 315.28 412.973 314.867 411.96 314.867C410.32 314.867 409.227 315.653 409.227 317.013C409.227 318.28 410.227 319.16 411.827 319.16ZM412.093 318.387C411.107 318.387 410.373 317.88 410.373 317.013C410.373 316.133 411.08 315.64 412.147 315.64C413.12 315.64 414.04 316.187 414.04 316.987C414.04 317.8 413.107 318.387 412.093 318.387ZM417.922 311.053C418.348 311.053 418.655 310.76 418.655 310.347C418.655 309.933 418.348 309.64 417.922 309.64C417.482 309.64 417.188 309.933 417.188 310.347C417.188 310.76 417.482 311.053 417.922 311.053ZM417.322 319H418.508V312.147H417.322V319ZM420.666 319H421.853V314.96C421.853 313.667 422.64 313.027 423.693 313.027C424.84 313.027 425.32 313.76 425.32 314.84V319H426.52V314.667C426.52 313.013 425.546 311.987 424.026 311.987C422.88 311.987 422.12 312.493 421.8 313.24V312.147H420.666V319ZM429.211 311.053C429.638 311.053 429.944 310.76 429.944 310.347C429.944 309.933 429.638 309.64 429.211 309.64C428.771 309.64 428.478 309.933 428.478 310.347C428.478 310.76 428.771 311.053 429.211 311.053ZM428.611 319H429.798V312.147H428.611V319ZM431.955 319H433.142V314.96C433.142 313.667 433.929 313.027 434.982 313.027C436.129 313.027 436.609 313.76 436.609 314.84V319H437.809V314.667C437.809 313.013 436.835 311.987 435.315 311.987C434.169 311.987 433.409 312.493 433.089 313.24V312.147H431.955V319ZM442.633 321.48C444.407 321.48 445.713 320.4 445.713 318.973V312.147H444.567V313.213C444.3 312.64 443.54 311.987 442.3 311.987C440.487 311.987 439.487 313.253 439.487 314.8V315.907C439.487 317.427 440.5 318.707 442.287 318.707C443.38 318.707 444.287 318.093 444.513 317.493V318.947C444.513 319.92 443.753 320.547 442.633 320.547C441.74 320.547 441.113 320.28 440.767 319.667H439.607C439.953 320.827 441.207 321.48 442.633 321.48ZM442.54 317.747C441.313 317.747 440.673 317.013 440.673 315.827V314.88C440.673 313.667 441.327 312.96 442.58 312.96C443.687 312.96 444.513 313.827 444.513 314.933V315.8C444.513 317.027 443.633 317.747 442.54 317.747ZM454.078 319.187C456.092 319.187 457.598 318.107 457.598 316.387C457.598 315.173 456.812 314.4 455.612 314.08L452.945 313.373C452.198 313.173 451.865 312.76 451.865 312.04C451.865 311 452.718 310.44 453.958 310.44C455.332 310.44 456.105 311.173 456.105 312.2V312.4H457.238V312.173C457.238 310.573 455.905 309.48 453.958 309.48C451.998 309.48 450.678 310.467 450.678 312.133C450.678 313.28 451.225 314.04 452.585 314.387L455.185 315.067C455.998 315.28 456.412 315.773 456.412 316.48C456.412 317.6 455.532 318.227 454.092 318.227C452.612 318.227 451.718 317.467 451.718 316.36V316.147H450.558V316.387C450.558 318.12 452.038 319.187 454.078 319.187ZM462.15 319.16C463.603 319.16 464.763 318.28 464.99 317.04H463.923C463.71 317.747 463.123 318.267 462.15 318.267C460.803 318.267 460.243 317.36 460.243 316.267V316.04H465.056V314.973C465.056 313.307 464.083 311.987 462.11 311.987C460.15 311.987 459.083 313.24 459.083 315.093V316.16C459.083 318.027 460.336 319.16 462.15 319.16ZM460.243 315.147V314.973C460.243 313.787 460.736 312.88 462.11 312.88C463.363 312.88 463.936 313.72 463.936 314.867V315.147H460.243ZM469.186 319H470.133V318.027H469.44C468.733 318.027 468.506 317.76 468.506 317.12V313.12H470.186V312.147H468.506V310.2H467.306V312.147H466.186V313.12H467.306V317.147C467.306 318.32 467.866 319 469.186 319ZM478.063 319.187C480.076 319.187 481.583 318.107 481.583 316.387C481.583 315.173 480.796 314.4 479.596 314.08L476.929 313.373C476.183 313.173 475.849 312.76 475.849 312.04C475.849 311 476.703 310.44 477.943 310.44C479.316 310.44 480.089 311.173 480.089 312.2V312.4H481.223V312.173C481.223 310.573 479.889 309.48 477.943 309.48C475.983 309.48 474.663 310.467 474.663 312.133C474.663 313.28 475.209 314.04 476.569 314.387L479.169 315.067C479.983 315.28 480.396 315.773 480.396 316.48C480.396 317.6 479.516 318.227 478.076 318.227C476.596 318.227 475.703 317.467 475.703 316.36V316.147H474.543V316.387C474.543 318.12 476.023 319.187 478.063 319.187ZM484.081 311.053C484.507 311.053 484.814 310.76 484.814 310.347C484.814 309.933 484.507 309.64 484.081 309.64C483.641 309.64 483.347 309.933 483.347 310.347C483.347 310.76 483.641 311.053 484.081 311.053ZM483.481 319H484.667V312.147H483.481V319ZM486.505 319H491.798V318.067H487.852L491.745 313.027V312.147H486.665V313.08H490.398L486.505 318.12V319ZM496.121 319.16C497.574 319.16 498.734 318.28 498.961 317.04H497.894C497.681 317.747 497.094 318.267 496.121 318.267C494.774 318.267 494.214 317.36 494.214 316.267V316.04H499.028V314.973C499.028 313.307 498.054 311.987 496.081 311.987C494.121 311.987 493.054 313.24 493.054 315.093V316.16C493.054 318.027 494.308 319.16 496.121 319.16ZM494.214 315.147V314.973C494.214 313.787 494.708 312.88 496.081 312.88C497.334 312.88 497.908 313.72 497.908 314.867V315.147H494.214Z" fill="black"></path>
          <path d="M320.521 146H322.361V136.667H320.841L318.534 137.64V139.267L320.521 138.533V146ZM324.475 146H326.355L330.221 137.973V136.667H324.115V138.173H328.328L324.475 146ZM334.442 146.187C336.536 146.187 338.002 144.733 338.002 142.907C338.002 141 336.696 139.787 334.962 139.787C334.229 139.787 333.602 140 333.202 140.373L333.589 138.133H337.136V136.667H332.136L331.256 142.08H332.949C333.229 141.6 333.749 141.267 334.496 141.267C335.549 141.267 336.202 142.013 336.202 142.96C336.202 143.96 335.536 144.693 334.442 144.693C333.576 144.693 333.002 144.213 332.842 143.52H331.096C331.336 145.293 332.802 146.187 334.442 146.187ZM339.696 146H343.949C345.816 146 347.109 144.933 347.109 143.373C347.109 142.107 346.336 141.373 345.376 141.173C346.029 140.8 346.549 140.093 346.549 139.027C346.549 137.627 345.523 136.667 343.883 136.667H339.696V146ZM341.509 140.533V138.133H343.456C344.229 138.133 344.683 138.587 344.683 139.293C344.683 140.013 344.256 140.533 343.469 140.533H341.509ZM341.509 144.533V141.987H343.843C344.723 141.987 345.243 142.48 345.243 143.253C345.243 144.04 344.749 144.533 343.856 144.533H341.509ZM351.467 146H353.333V142.227H357.453V140.68H353.333V138.213H357.853V136.667H351.467V146ZM360.238 138.307C360.851 138.307 361.291 137.853 361.291 137.253C361.291 136.653 360.851 136.2 360.238 136.2C359.624 136.2 359.184 136.653 359.184 137.253C359.184 137.853 359.624 138.307 360.238 138.307ZM359.331 146H361.144V139.067H359.331V146ZM363.052 146H364.866V141.893C364.866 140.96 365.386 140.48 366.199 140.48C367.079 140.48 367.466 141.053 367.466 141.853V146H369.279V141.56C369.279 139.893 368.332 138.907 366.826 138.907C365.839 138.907 365.132 139.253 364.786 139.893V139.067H363.052V146ZM373.915 146.16C375.448 146.16 376.688 145.24 376.928 143.973H375.342C375.168 144.453 374.688 144.853 373.915 144.853C372.862 144.853 372.448 144.147 372.448 143.333V143.16H376.982V141.947C376.982 140.28 375.942 138.907 373.888 138.907C371.808 138.907 370.688 140.24 370.688 142.12V143.067C370.688 145.013 371.955 146.16 373.915 146.16ZM372.448 141.88V141.813C372.448 140.88 372.848 140.187 373.888 140.187C374.862 140.187 375.315 140.84 375.315 141.707V141.88H372.448ZM378.335 142.547H382.322V140.92H378.335V142.547ZM386.234 146H387.487V144.533H386.754C386.274 144.533 386.1 144.347 386.1 143.893V140.533H387.58V139.067H386.1V137.173H384.274V139.067H383.287V140.533H384.274V144.027C384.274 145.253 384.9 146 386.234 146ZM391.298 146.16C392.191 146.16 392.991 145.76 393.311 145.173V146H395.044V139.067H393.231V143.24C393.231 144.107 392.751 144.64 391.911 144.64C391.098 144.64 390.684 144.133 390.684 143.253V139.067H388.871V143.507C388.871 145.08 389.738 146.16 391.298 146.16ZM396.828 146H398.641V141.893C398.641 140.96 399.161 140.48 399.975 140.48C400.855 140.48 401.241 141.053 401.241 141.853V146H403.055V141.56C403.055 139.893 402.108 138.907 400.601 138.907C399.615 138.907 398.908 139.253 398.561 139.893V139.067H396.828V146ZM405.798 138.307C406.411 138.307 406.851 137.853 406.851 137.253C406.851 136.653 406.411 136.2 405.798 136.2C405.184 136.2 404.744 136.653 404.744 137.253C404.744 137.853 405.184 138.307 405.798 138.307ZM404.891 146H406.704V139.067H404.891V146ZM408.612 146H410.425V141.893C410.425 140.96 410.945 140.48 411.759 140.48C412.639 140.48 413.025 141.053 413.025 141.853V146H414.839V141.56C414.839 139.893 413.892 138.907 412.385 138.907C411.399 138.907 410.692 139.253 410.345 139.893V139.067H408.612V146ZM419.581 148.48C421.515 148.48 422.901 147.333 422.901 145.853V139.067H421.168V139.907C420.928 139.44 420.181 138.907 419.115 138.907C417.221 138.907 416.248 140.24 416.248 141.787V142.8C416.248 144.32 417.235 145.68 419.101 145.68C419.995 145.68 420.795 145.213 421.088 144.733V145.827C421.088 146.6 420.501 147.107 419.581 147.107C418.875 147.107 418.328 146.893 418.088 146.413H416.328C416.608 147.72 417.955 148.48 419.581 148.48ZM419.528 144.227C418.541 144.227 418.048 143.587 418.048 142.707V141.907C418.048 140.96 418.568 140.36 419.581 140.36C420.448 140.36 421.088 140.973 421.088 141.907V142.707C421.088 143.68 420.381 144.227 419.528 144.227Z" fill="#226DE8"></path>
          <path d="M320.807 54H322.647V44.6667H321.127L318.82 45.64V47.2667L320.807 46.5334V54ZM324.761 54H326.641L330.508 45.9734V44.6667H324.401V46.1734H328.614L324.761 54ZM334.729 54.1867C336.822 54.1867 338.289 52.7333 338.289 50.9067C338.289 49 336.982 47.7867 335.249 47.7867C334.516 47.7867 333.889 48 333.489 48.3733L333.876 46.1334H337.422V44.6667H332.422L331.542 50.08H333.236C333.516 49.6 334.036 49.2667 334.782 49.2667C335.836 49.2667 336.489 50.0133 336.489 50.96C336.489 51.96 335.822 52.6933 334.729 52.6933C333.862 52.6933 333.289 52.2133 333.129 51.52H331.382C331.622 53.2933 333.089 54.1867 334.729 54.1867ZM339.982 54H344.236C346.102 54 347.396 52.9333 347.396 51.3733C347.396 50.1067 346.622 49.3733 345.662 49.1733C346.316 48.8 346.836 48.0933 346.836 47.0267C346.836 45.6267 345.809 44.6667 344.169 44.6667H339.982V54ZM341.796 48.5333V46.1334H343.742C344.516 46.1334 344.969 46.5867 344.969 47.2934C344.969 48.0133 344.542 48.5333 343.756 48.5333H341.796ZM341.796 52.5333V49.9867H344.129C345.009 49.9867 345.529 50.48 345.529 51.2533C345.529 52.04 345.036 52.5333 344.142 52.5333H341.796ZM353.879 54H355.986L359.079 44.6667H357.172L354.932 51.96L352.692 44.6667H350.786L353.879 54ZM362.391 54.16C363.925 54.16 365.165 53.24 365.405 51.9733H363.818C363.645 52.4533 363.165 52.8533 362.391 52.8533C361.338 52.8533 360.925 52.1467 360.925 51.3333V51.16H365.458V49.9467C365.458 48.28 364.418 46.9067 362.365 46.9067C360.285 46.9067 359.165 48.24 359.165 50.12V51.0667C359.165 53.0133 360.431 54.16 362.391 54.16ZM360.925 49.88V49.8133C360.925 48.88 361.325 48.1867 362.365 48.1867C363.338 48.1867 363.791 48.84 363.791 49.7067V49.88H360.925ZM366.932 54H368.746V50.8C368.746 49.4 369.386 48.8133 370.572 48.8133H370.946V47.0134H370.732C369.692 47.0134 368.879 47.3733 368.652 48.4133V47.0667H366.932V54ZM373.206 46.3067C373.82 46.3067 374.26 45.8534 374.26 45.2534C374.26 44.6534 373.82 44.2 373.206 44.2C372.593 44.2 372.153 44.6534 372.153 45.2534C372.153 45.8534 372.593 46.3067 373.206 46.3067ZM372.3 54H374.113V47.0667H372.3V54ZM381.808 46.3067C382.421 46.3067 382.861 45.8534 382.861 45.2534C382.861 44.6534 382.421 44.2 381.808 44.2C381.194 44.2 380.754 44.6534 380.754 45.2534C380.754 45.8534 381.194 46.3067 381.808 46.3067ZM376.421 54H378.234V48.5333H379.634V47.0667H378.234V46.4134C378.234 45.8667 378.461 45.7067 378.981 45.7067H379.768V44.2667H378.568C377.141 44.2667 376.421 44.9067 376.421 46.4267V47.0667H375.541V48.5333H376.421V54ZM380.901 54H382.714V47.0667H380.901V54ZM387.51 54.16C389.363 54.16 390.617 53 390.67 51.4133H389.017C388.937 52.0933 388.51 52.6933 387.55 52.6933C386.523 52.6933 386.043 52.0267 386.043 51.0933V49.9733C386.043 49.04 386.523 48.3733 387.55 48.3733C388.51 48.3733 388.937 48.9733 389.017 49.6533H390.67C390.617 48.0667 389.363 46.9067 387.51 46.9067C385.417 46.9067 384.23 48.2267 384.23 50.04V51.0267C384.23 52.84 385.417 54.16 387.51 54.16ZM394.487 54.16C395.287 54.16 396.167 53.8267 396.487 53.36V54H398.234V49.5733C398.234 47.96 397.047 46.9067 395.314 46.9067C393.82 46.9067 392.74 47.6267 392.34 48.9733H394.02C394.207 48.6 394.594 48.32 395.22 48.32C395.967 48.32 396.42 48.8 396.42 49.44V50.3867C396.1 50.12 395.487 49.8 394.66 49.8C392.994 49.8 391.86 50.4933 391.86 52C391.86 53.3467 392.927 54.16 394.487 54.16ZM394.954 52.96C394.194 52.96 393.62 52.5867 393.62 51.9467C393.62 51.3067 394.154 50.96 395.007 50.96C395.82 50.96 396.42 51.32 396.42 51.9333C396.42 52.52 395.754 52.96 394.954 52.96ZM402.21 54H403.464V52.5333H402.73C402.25 52.5333 402.077 52.3467 402.077 51.8933V48.5333H403.557V47.0667H402.077V45.1734H400.25V47.0667H399.264V48.5333H400.25V52.0267C400.25 53.2533 400.877 54 402.21 54ZM405.941 46.3067C406.554 46.3067 406.994 45.8534 406.994 45.2534C406.994 44.6534 406.554 44.2 405.941 44.2C405.327 44.2 404.887 44.6534 404.887 45.2534C404.887 45.8534 405.327 46.3067 405.941 46.3067ZM405.034 54H406.847V47.0667H405.034V54ZM411.715 54.16C413.795 54.16 414.982 52.8 414.982 51.0267V50.04C414.982 48.2667 413.795 46.9067 411.715 46.9067C409.635 46.9067 408.449 48.2667 408.449 50.04V51.0267C408.449 52.8 409.635 54.16 411.715 54.16ZM411.715 52.7333C410.689 52.7333 410.209 52.0533 410.209 51.1467V49.92C410.209 49.0133 410.689 48.3333 411.715 48.3333C412.742 48.3333 413.222 49.0133 413.222 49.92V51.1467C413.222 52.0533 412.742 52.7333 411.715 52.7333ZM416.464 54H418.277V49.8933C418.277 48.96 418.797 48.48 419.61 48.48C420.49 48.48 420.877 49.0533 420.877 49.8533V54H422.69V49.56C422.69 47.8933 421.744 46.9067 420.237 46.9067C419.25 46.9067 418.544 47.2533 418.197 47.8933V47.0667H416.464V54Z" fill="#FF8326"></path>
          <path d="M5.16 119H6.26667V116.827H7.54667V115.907H6.26667V113.76H5.16V115.907H1.94667L4.90667 109.667H3.8L0.76 115.933V116.827H5.16V119ZM12.6977 119.187C14.7777 119.187 16.0177 117.853 16.0177 116.053V112.613C16.0177 110.813 14.7777 109.48 12.6977 109.48C10.631 109.48 9.37771 110.813 9.37771 112.613V116.053C9.37771 117.853 10.631 119.187 12.6977 119.187ZM12.6977 118.2C11.3377 118.2 10.591 117.36 10.591 116.08V112.587C10.591 111.307 11.3377 110.467 12.6977 110.467C14.0577 110.467 14.8177 111.307 14.8177 112.587V116.08C14.8177 117.36 14.0577 118.2 12.6977 118.2Z" fill="black"></path>
          <path d="M3.97333 170.187C5.77333 170.187 7.25333 169.013 7.25333 167.36C7.25333 165.747 6.04 164.72 4.36 164.72H4.08L6.93333 161.653V160.667H1.4V161.64H5.46667L2.74667 164.667V165.627H4.04C5.29333 165.627 6.08 166.333 6.08 167.4C6.08 168.427 5.25333 169.213 3.98667 169.213C2.81333 169.213 1.98667 168.533 1.89333 167.413H0.773333C0.84 169.213 2.32 170.187 3.97333 170.187ZM12.6717 170.187C14.7517 170.187 15.9917 168.853 15.9917 167.053V163.613C15.9917 161.813 14.7517 160.48 12.6717 160.48C10.605 160.48 9.35166 161.813 9.35166 163.613V167.053C9.35166 168.853 10.605 170.187 12.6717 170.187ZM12.6717 169.2C11.3117 169.2 10.565 168.36 10.565 167.08V163.587C10.565 162.307 11.3117 161.467 12.6717 161.467C14.0317 161.467 14.7917 162.307 14.7917 163.587V167.08C14.7917 168.36 14.0317 169.2 12.6717 169.2Z" fill="black"></path>
          <path d="M0.88 223H7V222.013H2.30667L5.4 218.907C6.18667 218.133 7 217.267 7 216.08C7 214.493 5.74667 213.48 4.01333 213.48C2.24 213.48 1.02667 214.453 1.02667 216.2V216.453H2.17333V216.253C2.17333 215.12 2.89333 214.467 4.01333 214.467C5.04 214.467 5.8 215.107 5.8 216.08C5.8 216.787 5.41333 217.373 4.78667 218.013L0.88 222.067V223ZM12.4503 223.187C14.5303 223.187 15.7703 221.853 15.7703 220.053V216.613C15.7703 214.813 14.5303 213.48 12.4503 213.48C10.3836 213.48 9.13031 214.813 9.13031 216.613V220.053C9.13031 221.853 10.3836 223.187 12.4503 223.187ZM12.4503 222.2C11.0903 222.2 10.3436 221.36 10.3436 220.08V216.587C10.3436 215.307 11.0903 214.467 12.4503 214.467C13.8103 214.467 14.5703 215.307 14.5703 216.587V220.08C14.5703 221.36 13.8103 222.2 12.4503 222.2Z" fill="black"></path>
          <path d="M2.34667 275H3.56V265.667H2.56L0.4 266.693V267.8L2.34667 266.92V275ZM9.35135 275.187C11.4314 275.187 12.6714 273.853 12.6714 272.053V268.613C12.6714 266.813 11.4314 265.48 9.35135 265.48C7.28469 265.48 6.03135 266.813 6.03135 268.613V272.053C6.03135 273.853 7.28469 275.187 9.35135 275.187ZM9.35135 274.2C7.99135 274.2 7.24469 273.36 7.24469 272.08V268.587C7.24469 267.307 7.99135 266.467 9.35135 266.467C10.7114 266.467 11.4714 267.307 11.4714 268.587V272.08C11.4714 273.36 10.7114 274.2 9.35135 274.2Z" fill="black"></path>
          <path d="M15.202 365.187C17.1887 365.187 18.6154 363.8 18.6154 362C18.6154 360.227 17.3354 358.907 15.5754 358.907C14.7087 358.907 13.9087 359.253 13.4954 359.747L14.0287 356.653H17.802V355.667H13.0687L12.1887 360.92H13.3354C13.7354 360.347 14.402 359.893 15.322 359.893C16.5754 359.893 17.4287 360.853 17.4287 362.027C17.4287 363.28 16.562 364.2 15.202 364.2C14.1087 364.2 13.3887 363.56 13.1487 362.667H12.002C12.282 364.28 13.642 365.187 15.202 365.187ZM23.949 365.187C26.029 365.187 27.269 363.853 27.269 362.053V358.613C27.269 356.813 26.029 355.48 23.949 355.48C21.8823 355.48 20.629 356.813 20.629 358.613V362.053C20.629 363.853 21.8823 365.187 23.949 365.187ZM23.949 364.2C22.589 364.2 21.8423 363.36 21.8423 362.08V358.587C21.8423 357.307 22.589 356.467 23.949 356.467C25.309 356.467 26.069 357.307 26.069 358.587V362.08C26.069 363.36 25.309 364.2 23.949 364.2ZM32.7068 365.187C34.7868 365.187 36.0268 363.853 36.0268 362.053V358.613C36.0268 356.813 34.7868 355.48 32.7068 355.48C30.6402 355.48 29.3868 356.813 29.3868 358.613V362.053C29.3868 363.853 30.6402 365.187 32.7068 365.187ZM32.7068 364.2C31.3468 364.2 30.6002 363.36 30.6002 362.08V358.587C30.6002 357.307 31.3468 356.467 32.7068 356.467C34.0668 356.467 34.8268 357.307 34.8268 358.587V362.08C34.8268 363.36 34.0668 364.2 32.7068 364.2Z" fill="black"></path>
          <path d="M126.347 365H127.56V355.667H126.56L124.4 356.693V357.8L126.347 356.92V365ZM133.351 365.187C135.431 365.187 136.671 363.853 136.671 362.053V358.613C136.671 356.813 135.431 355.48 133.351 355.48C131.285 355.48 130.031 356.813 130.031 358.613V362.053C130.031 363.853 131.285 365.187 133.351 365.187ZM133.351 364.2C131.991 364.2 131.245 363.36 131.245 362.08V358.587C131.245 357.307 131.991 356.467 133.351 356.467C134.711 356.467 135.471 357.307 135.471 358.587V362.08C135.471 363.36 134.711 364.2 133.351 364.2ZM142.109 365.187C144.189 365.187 145.429 363.853 145.429 362.053V358.613C145.429 356.813 144.189 355.48 142.109 355.48C140.042 355.48 138.789 356.813 138.789 358.613V362.053C138.789 363.853 140.042 365.187 142.109 365.187ZM142.109 364.2C140.749 364.2 140.002 363.36 140.002 362.08V358.587C140.002 357.307 140.749 356.467 142.109 356.467C143.469 356.467 144.229 357.307 144.229 358.587V362.08C144.229 363.36 143.469 364.2 142.109 364.2ZM150.867 365.187C152.947 365.187 154.187 363.853 154.187 362.053V358.613C154.187 356.813 152.947 355.48 150.867 355.48C148.8 355.48 147.547 356.813 147.547 358.613V362.053C147.547 363.853 148.8 365.187 150.867 365.187ZM150.867 364.2C149.507 364.2 148.76 363.36 148.76 362.08V358.587C148.76 357.307 149.507 356.467 150.867 356.467C152.227 356.467 152.987 357.307 152.987 358.587V362.08C152.987 363.36 152.227 364.2 150.867 364.2Z" fill="black"></path>
          <path d="M237.88 365H244V364.013H239.307L242.4 360.907C243.187 360.133 244 359.267 244 358.08C244 356.493 242.747 355.48 241.013 355.48C239.24 355.48 238.027 356.453 238.027 358.2V358.453H239.173V358.253C239.173 357.12 239.893 356.467 241.013 356.467C242.04 356.467 242.8 357.107 242.8 358.08C242.8 358.787 242.413 359.373 241.787 360.013L237.88 364.067V365ZM249.45 365.187C251.53 365.187 252.77 363.853 252.77 362.053V358.613C252.77 356.813 251.53 355.48 249.45 355.48C247.384 355.48 246.13 356.813 246.13 358.613V362.053C246.13 363.853 247.384 365.187 249.45 365.187ZM249.45 364.2C248.09 364.2 247.344 363.36 247.344 362.08V358.587C247.344 357.307 248.09 356.467 249.45 356.467C250.81 356.467 251.57 357.307 251.57 358.587V362.08C251.57 363.36 250.81 364.2 249.45 364.2ZM258.208 365.187C260.288 365.187 261.528 363.853 261.528 362.053V358.613C261.528 356.813 260.288 355.48 258.208 355.48C256.141 355.48 254.888 356.813 254.888 358.613V362.053C254.888 363.853 256.141 365.187 258.208 365.187ZM258.208 364.2C256.848 364.2 256.101 363.36 256.101 362.08V358.587C256.101 357.307 256.848 356.467 258.208 356.467C259.568 356.467 260.328 357.307 260.328 358.587V362.08C260.328 363.36 259.568 364.2 258.208 364.2ZM266.966 365.187C269.046 365.187 270.286 363.853 270.286 362.053V358.613C270.286 356.813 269.046 355.48 266.966 355.48C264.899 355.48 263.646 356.813 263.646 358.613V362.053C263.646 363.853 264.899 365.187 266.966 365.187ZM266.966 364.2C265.606 364.2 264.859 363.36 264.859 362.08V358.587C264.859 357.307 265.606 356.467 266.966 356.467C268.326 356.467 269.086 357.307 269.086 358.587V362.08C269.086 363.36 268.326 364.2 266.966 364.2Z" fill="black"></path>
          <path d="M359.16 365H360.267V362.827H361.547V361.907H360.267V359.76H359.16V361.907H355.947L358.907 355.667H357.8L354.76 361.933V362.827H359.16V365ZM366.698 365.187C368.778 365.187 370.018 363.853 370.018 362.053V358.613C370.018 356.813 368.778 355.48 366.698 355.48C364.631 355.48 363.378 356.813 363.378 358.613V362.053C363.378 363.853 364.631 365.187 366.698 365.187ZM366.698 364.2C365.338 364.2 364.591 363.36 364.591 362.08V358.587C364.591 357.307 365.338 356.467 366.698 356.467C368.058 356.467 368.818 357.307 368.818 358.587V362.08C368.818 363.36 368.058 364.2 366.698 364.2ZM375.456 365.187C377.536 365.187 378.776 363.853 378.776 362.053V358.613C378.776 356.813 377.536 355.48 375.456 355.48C373.389 355.48 372.136 356.813 372.136 358.613V362.053C372.136 363.853 373.389 365.187 375.456 365.187ZM375.456 364.2C374.096 364.2 373.349 363.36 373.349 362.08V358.587C373.349 357.307 374.096 356.467 375.456 356.467C376.816 356.467 377.576 357.307 377.576 358.587V362.08C377.576 363.36 376.816 364.2 375.456 364.2ZM384.213 365.187C386.293 365.187 387.533 363.853 387.533 362.053V358.613C387.533 356.813 386.293 355.48 384.213 355.48C382.147 355.48 380.893 356.813 380.893 358.613V362.053C380.893 363.853 382.147 365.187 384.213 365.187ZM384.213 364.2C382.853 364.2 382.107 363.36 382.107 362.08V358.587C382.107 357.307 382.853 356.467 384.213 356.467C385.573 356.467 386.333 357.307 386.333 358.587V362.08C386.333 363.36 385.573 364.2 384.213 364.2Z" fill="black"></path>
          <path d="M472.2 365.187C474.133 365.187 475.493 364.093 475.493 362.493C475.493 361.12 474.587 360.387 473.693 360.147C474.533 359.747 475.107 359.027 475.107 358C475.107 356.427 473.893 355.48 472.2 355.48C470.52 355.48 469.307 356.427 469.307 358C469.307 359.027 469.88 359.747 470.72 360.147C469.827 360.387 468.92 361.12 468.92 362.493C468.92 364.093 470.28 365.187 472.2 365.187ZM472.2 359.747C471.173 359.747 470.44 359 470.44 358.08C470.44 357.04 471.133 356.387 472.2 356.387C473.28 356.387 473.973 357.04 473.973 358.08C473.973 359 473.24 359.747 472.2 359.747ZM472.2 364.267C470.987 364.267 470.08 363.573 470.08 362.493C470.08 361.333 470.947 360.667 472.2 360.667C473.467 360.667 474.333 361.333 474.333 362.493C474.333 363.573 473.427 364.267 472.2 364.267ZM480.958 365.187C483.038 365.187 484.278 363.853 484.278 362.053V358.613C484.278 356.813 483.038 355.48 480.958 355.48C478.891 355.48 477.638 356.813 477.638 358.613V362.053C477.638 363.853 478.891 365.187 480.958 365.187ZM480.958 364.2C479.598 364.2 478.851 363.36 478.851 362.08V358.587C478.851 357.307 479.598 356.467 480.958 356.467C482.318 356.467 483.078 357.307 483.078 358.587V362.08C483.078 363.36 482.318 364.2 480.958 364.2ZM489.716 365.187C491.796 365.187 493.036 363.853 493.036 362.053V358.613C493.036 356.813 491.796 355.48 489.716 355.48C487.649 355.48 486.396 356.813 486.396 358.613V362.053C486.396 363.853 487.649 365.187 489.716 365.187ZM489.716 364.2C488.356 364.2 487.609 363.36 487.609 362.08V358.587C487.609 357.307 488.356 356.467 489.716 356.467C491.076 356.467 491.836 357.307 491.836 358.587V362.08C491.836 363.36 491.076 364.2 489.716 364.2ZM498.474 365.187C500.554 365.187 501.794 363.853 501.794 362.053V358.613C501.794 356.813 500.554 355.48 498.474 355.48C496.407 355.48 495.154 356.813 495.154 358.613V362.053C495.154 363.853 496.407 365.187 498.474 365.187ZM498.474 364.2C497.114 364.2 496.367 363.36 496.367 362.08V358.587C496.367 357.307 497.114 356.467 498.474 356.467C499.834 356.467 500.594 357.307 500.594 358.587V362.08C500.594 363.36 499.834 364.2 498.474 364.2Z" fill="black"></path>
          <path opacity="0.2" d="M142.5 243.5L26 256V249.048L142.5 228L254 210L371.5 171.5L499.5 112.5V128.5L371.5 197.5L254 217L142.5 243.5Z" fill="#226DE8"></path>
          <path d="M4.21333 326.187C6.29333 326.187 7.53333 324.853 7.53333 323.053V319.613C7.53333 317.813 6.29333 316.48 4.21333 316.48C2.14667 316.48 0.893333 317.813 0.893333 319.613V323.053C0.893333 324.853 2.14667 326.187 4.21333 326.187ZM4.21333 325.2C2.85333 325.2 2.10667 324.36 2.10667 323.08V319.587C2.10667 318.307 2.85333 317.467 4.21333 317.467C5.57333 317.467 6.33333 318.307 6.33333 319.587V323.08C6.33333 324.36 5.57333 325.2 4.21333 325.2Z" fill="black"></path>
          <line x1="0.760742" y1="333.5" x2="500" y2="333.5" stroke="black"></line>
          <line opacity="0.0875" x1="0.760742" y1="281.5" x2="500" y2="281.5" stroke="black"></line>
          <line opacity="0.0875" x1="0.760742" y1="229.5" x2="500" y2="229.5" stroke="black"></line>
          <line opacity="0.1" x1="0.760742" y1="177.5" x2="500" y2="177.5" stroke="black"></line>
          <line opacity="0.0875" x1="0.760742" y1="125.5" x2="500" y2="125.5" stroke="black"></line>
          <line opacity="0.0875" x1="0.760742" y1="73.5" x2="500" y2="73.5" stroke="black"></line>
          <line opacity="0.0875" x1="0.760742" y1="21.5" x2="500" y2="21.5" stroke="black"></line>
          <line x1="24.8535" y1="334" x2="24.8535" y2="342" stroke="black"></line>
          <line x1="140.53" y1="334" x2="140.53" y2="342" stroke="black"></line>
          <line x1="255.446" y1="334" x2="255.446" y2="342" stroke="black"></line>
          <line x1="371.124" y1="334" x2="371.124" y2="342" stroke="black"></line>
          <line x1="486.802" y1="334" x2="486.802" y2="342" stroke="black"></line>
          <path d="M24 253L141.553 237.5L255 214.5L371 184.5L500 119.5" stroke="#226DE8" stroke-width="2"></path>
          <circle cx="25" cy="250" r="2" fill="#226DE8"></circle>
          <circle cx="25" cy="256" r="2" fill="#226DE8"></circle>
          <circle cx="142" cy="232" r="2" fill="#226DE8"></circle>
          <circle cx="142" cy="244" r="2" fill="#226DE8"></circle>
          <circle cx="254" cy="211" r="2" fill="#226DE8"></circle>
          <circle cx="254" cy="215" r="2" fill="#226DE8"></circle>
          <circle cx="254" cy="217" r="2" fill="#226DE8"></circle>
          <circle cx="371" cy="170" r="2" fill="#226DE8"></circle>
          <circle cx="371" cy="189" r="2" fill="#226DE8"></circle>
          <circle cx="371" cy="194" r="2" fill="#226DE8"></circle>
          <circle cx="498" cy="111" r="2" fill="#226DE8"></circle>
          <circle cx="498" cy="125" r="2" fill="#226DE8"></circle>
          <circle cx="498" cy="127" r="2" fill="#226DE8"></circle>
          <path d="M26.5 287.5L142.314 249.5L254.566 146L371.005 81.5L500 39.5" stroke="#FF8326" stroke-width="2"></path>
          <circle cx="25.5" cy="288.5" r="2.5" fill="#FF8326"></circle>
          <circle cx="142.5" cy="249.5" r="2.5" fill="#FF8326"></circle>
          <circle cx="254.5" cy="146.5" r="2.5" fill="#FF8326"></circle>
          <circle cx="371.5" cy="81.5" r="2.5" fill="#FF8326"></circle>
          <circle cx="498.5" cy="39.5" r="2.5" fill="#FF8326"></circle>
        </svg>