<svg width="506" height="372" viewBox="0 0 506 372" fill="none" xmlns="http://www.w3.org/2000/svg">
          <path d="M6.4032 66.1867C8.38987 66.1867 9.81653 64.8 9.81653 63C9.81653 61.2267 8.53654 59.9067 6.77654 59.9067C5.90987 59.9067 5.10987 60.2533 4.69654 60.7467L5.22987 57.6533H9.0032V56.6667H4.26987L3.38987 61.92H4.53654C4.93654 61.3467 5.6032 60.8933 6.5232 60.8933C7.77654 60.8933 8.62987 61.8533 8.62987 63.0267C8.62987 64.28 7.7632 65.2 6.4032 65.2C5.30987 65.2 4.58987 64.56 4.34987 63.6667H3.2032C3.4832 65.28 4.8432 66.1867 6.4032 66.1867ZM15.1502 66.1867C17.2302 66.1867 18.4702 64.8533 18.4702 63.0533V59.6133C18.4702 57.8133 17.2302 56.48 15.1502 56.48C13.0835 56.48 11.8302 57.8133 11.8302 59.6133V63.0533C11.8302 64.8533 13.0835 66.1867 15.1502 66.1867ZM15.1502 65.2C13.7902 65.2 13.0435 64.36 13.0435 63.08V59.5867C13.0435 58.3067 13.7902 57.4667 15.1502 57.4667C16.5102 57.4667 17.2702 58.3067 17.2702 59.5867V63.08C17.2702 64.36 16.5102 65.2 15.1502 65.2Z" fill="black"></path>
          <path d="M6.34987 14.1867C8.25654 14.1867 9.65654 12.72 9.65654 11.0133C9.65654 9.2 8.38987 7.93333 6.7232 7.93333C5.9632 7.93333 5.37654 8.18667 4.94987 8.68V8.66667L7.6432 4.66667H6.34987L4.02987 8.26667C3.50987 9.06667 3.0432 9.94667 3.0432 11.04C3.0432 12.8533 4.37654 14.1867 6.34987 14.1867ZM6.33654 13.2267C5.02987 13.2267 4.21654 12.3067 4.21654 11.0667C4.21654 9.8 5.1232 8.86667 6.37654 8.86667C7.6832 8.86667 8.46987 9.8 8.46987 11.04C8.46987 12.28 7.61654 13.2267 6.33654 13.2267ZM14.8637 14.1867C16.9437 14.1867 18.1837 12.8533 18.1837 11.0533V7.61333C18.1837 5.81333 16.9437 4.48 14.8637 4.48C12.7971 4.48 11.5437 5.81333 11.5437 7.61333V11.0533C11.5437 12.8533 12.7971 14.1867 14.8637 14.1867ZM14.8637 13.2C13.5037 13.2 12.7571 12.36 12.7571 11.08V7.58667C12.7571 6.30667 13.5037 5.46667 14.8637 5.46667C16.2237 5.46667 16.9837 6.30667 16.9837 7.58667V11.08C16.9837 12.36 16.2237 13.2 14.8637 13.2Z" fill="black"></path>
          <path d="M43.3595 14L44.5862 14V5.69333L47.3862 5.69333V4.66667L40.5595 4.66667V5.69333L43.3595 5.69333V14ZM50.3528 14.16C51.8061 14.16 52.9661 13.28 53.1928 12.04L52.1261 12.04C51.9128 12.7467 51.3261 13.2667 50.3528 13.2667C49.0061 13.2667 48.4461 12.36 48.4461 11.2667V11.04L53.2594 11.04V9.97333C53.2594 8.30667 52.2861 6.98667 50.3128 6.98667C48.3528 6.98667 47.2861 8.24 47.2861 10.0933V11.16C47.2861 13.0267 48.5394 14.16 50.3528 14.16ZM48.4461 10.1467V9.97333C48.4461 8.78667 48.9394 7.88 50.3128 7.88C51.5661 7.88 52.1394 8.72 52.1394 9.86667V10.1467H48.4461ZM57.5619 14.16C59.1886 14.16 60.3886 13.2533 60.3886 12.0133C60.3886 11.0267 59.7886 10.5067 58.7353 10.2533L56.6419 9.74667C56.1753 9.64 55.9619 9.37333 55.9619 8.93333C55.9619 8.24 56.5886 7.86667 57.4819 7.86667C58.4553 7.86667 59.0019 8.38667 59.0019 9.16V9.21333H60.0686V9.14667C60.0686 7.85333 58.9753 6.98667 57.4953 6.98667C55.9619 6.98667 54.8553 7.68 54.8553 9C54.8553 9.92 55.4286 10.52 56.4553 10.7467L58.4819 11.2133C59.0019 11.3333 59.2819 11.64 59.2819 12.0933C59.2819 12.8933 58.5619 13.28 57.5753 13.28C56.5219 13.28 55.7753 12.7733 55.7753 11.9733V11.92H54.6953V12C54.6953 13.36 55.8819 14.16 57.5619 14.16ZM64.3166 14H65.2633V13.0267H64.57C63.8633 13.0267 63.6366 12.76 63.6366 12.12V8.12H65.3166V7.14667H63.6366V5.2L62.4366 5.2V7.14667H61.3166V8.12H62.4366V12.1467C62.4366 13.32 62.9966 14 64.3166 14ZM73.193 14.1867C75.2063 14.1867 76.713 13.1067 76.713 11.3867C76.713 10.1733 75.9263 9.4 74.7263 9.08L72.0596 8.37333C71.313 8.17333 70.9796 7.76 70.9796 7.04C70.9796 6 71.833 5.44 73.073 5.44C74.4463 5.44 75.2196 6.17334 75.2196 7.2V7.4L76.353 7.4V7.17333C76.353 5.57333 75.0196 4.48 73.073 4.48C71.113 4.48 69.793 5.46667 69.793 7.13333C69.793 8.28 70.3396 9.04 71.6996 9.38667L74.2996 10.0667C75.113 10.28 75.5263 10.7733 75.5263 11.48C75.5263 12.6 74.6463 13.2267 73.2063 13.2267C71.7263 13.2267 70.833 12.4667 70.833 11.36V11.1467H69.673V11.3867C69.673 13.12 71.153 14.1867 73.193 14.1867ZM81.3042 14.16C83.2642 14.16 84.3976 12.8267 84.3976 11.12V10.0267C84.3976 8.33333 83.2642 6.98667 81.3042 6.98667C79.3309 6.98667 78.1976 8.33333 78.1976 10.0267V11.12C78.1976 12.8267 79.3309 14.16 81.3042 14.16ZM81.3042 13.2133C80.0242 13.2133 79.3576 12.3467 79.3576 11.1333V10.0133C79.3576 8.81333 80.0242 7.94667 81.3042 7.94667C82.5709 7.94667 83.2376 8.81333 83.2376 10.0133V11.1333C83.2376 12.3467 82.5709 13.2133 81.3042 13.2133ZM86.2014 14L87.4014 14V4.26667H86.2014V14ZM91.2668 14H92.5202L95.0002 7.14667H93.8135L91.8935 12.8L89.9735 7.14667H88.8002L91.2668 14ZM98.9074 14.16C100.361 14.16 101.521 13.28 101.747 12.04H100.681C100.467 12.7467 99.8808 13.2667 98.9074 13.2667C97.5608 13.2667 97.0008 12.36 97.0008 11.2667V11.04H101.814V9.97333C101.814 8.30667 100.841 6.98667 98.8674 6.98667C96.9074 6.98667 95.8408 8.24 95.8408 10.0933V11.16C95.8408 13.0267 97.0941 14.16 98.9074 14.16ZM97.0008 10.1467V9.97333C97.0008 8.78667 97.4941 7.88 98.8674 7.88C100.121 7.88 100.694 8.72 100.694 9.86667V10.1467H97.0008ZM106.633 14H107.86V10.68H110.526L112.38 14H113.793L111.78 10.4933C113.02 10.0667 113.753 8.98667 113.753 7.68C113.753 6 112.646 4.66667 110.566 4.66667L106.633 4.66667V14ZM107.86 9.70667V5.66667L110.406 5.66667C111.793 5.66667 112.526 6.52 112.526 7.68C112.526 8.84 111.82 9.70667 110.406 9.70667H107.86ZM117.738 14.16C118.792 14.16 119.698 13.6667 120.005 13.2V14H121.152V9.49333C121.152 8.08 120.098 6.98667 118.392 6.98667C117.018 6.98667 116.032 7.69333 115.672 8.86667H116.778C117.032 8.30667 117.552 7.93333 118.365 7.93333C119.378 7.93333 119.952 8.6 119.952 9.46667V10.6533C119.592 10.28 118.885 9.86667 117.872 9.86667C116.232 9.86667 115.138 10.6533 115.138 12.0133C115.138 13.28 116.138 14.16 117.738 14.16ZM118.005 13.3867C117.018 13.3867 116.285 12.88 116.285 12.0133C116.285 11.1333 116.992 10.64 118.058 10.64C119.032 10.64 119.952 11.1867 119.952 11.9867C119.952 12.8 119.018 13.3867 118.005 13.3867ZM125.462 14H126.409V13.0267H125.716C125.009 13.0267 124.782 12.76 124.782 12.12V8.12H126.462V7.14667L124.782 7.14667V5.2H123.582V7.14667H122.462V8.12H123.582V12.1467C123.582 13.32 124.142 14 125.462 14ZM130.73 14.16C132.184 14.16 133.344 13.28 133.57 12.04H132.504C132.29 12.7467 131.704 13.2667 130.73 13.2667C129.384 13.2667 128.824 12.36 128.824 11.2667V11.04H133.637V9.97333C133.637 8.30667 132.664 6.98667 130.69 6.98667C128.73 6.98667 127.664 8.24 127.664 10.0933V11.16C127.664 13.0267 128.917 14.16 130.73 14.16ZM128.824 10.1467V9.97333C128.824 8.78667 129.317 7.88 130.69 7.88C131.944 7.88 132.517 8.72 132.517 9.86667V10.1467H128.824ZM139.883 15.7867H141.043C139.949 13.4667 139.469 11.6667 139.469 9.68C139.469 7.69333 139.949 5.89333 141.043 3.57333H139.883C138.789 5.64 138.269 7.52 138.269 9.68C138.269 11.84 138.789 13.72 139.883 15.7867ZM144.158 9.73333C145.425 9.73333 146.212 8.90667 146.212 7.72V6.57333C146.212 5.38667 145.425 4.56 144.158 4.56C142.892 4.56 142.105 5.38667 142.105 6.57333V7.72C142.105 8.90667 142.892 9.73333 144.158 9.73333ZM144.225 14L145.132 14L149.958 4.66667H149.065L144.225 14ZM144.158 9C143.398 9 142.985 8.50667 142.985 7.78667V6.50667C142.985 5.78667 143.398 5.29333 144.158 5.29333C144.918 5.29333 145.332 5.78667 145.332 6.50667V7.78667C145.332 8.50667 144.918 9 144.158 9ZM150.025 14.1067C151.292 14.1067 152.078 13.28 152.078 12.0933V10.9467C152.078 9.76 151.292 8.93333 150.025 8.93333C148.758 8.93333 147.972 9.76 147.972 10.9467V12.0933C147.972 13.28 148.758 14.1067 150.025 14.1067ZM150.025 13.3733C149.252 13.3733 148.838 12.88 148.838 12.16V10.88C148.838 10.16 149.252 9.66667 150.025 9.66667C150.785 9.66667 151.198 10.16 151.198 10.88V12.16C151.198 12.88 150.785 13.3733 150.025 13.3733ZM153.061 15.7867L154.221 15.7867C155.301 13.72 155.834 11.84 155.834 9.68C155.834 7.52 155.301 5.64 154.221 3.57333H153.061C154.141 5.89333 154.634 7.69333 154.634 9.68C154.634 11.6667 154.141 13.4667 153.061 15.7867Z" fill="black"></path>
          <path d="M403.43 319H404.657V310.693H407.457V309.667H400.63V310.693H403.43V319ZM408.08 319H409.267V315.68C409.267 314.04 410.054 313.24 411.32 313.24H411.56V312.107H411.387C410.2 312.107 409.44 312.627 409.2 313.667V312.147H408.08V319ZM414.827 319.16C415.88 319.16 416.787 318.667 417.093 318.2V319H418.24V314.493C418.24 313.08 417.187 311.987 415.48 311.987C414.107 311.987 413.12 312.693 412.76 313.867H413.867C414.12 313.307 414.64 312.933 415.453 312.933C416.467 312.933 417.04 313.6 417.04 314.467V315.653C416.68 315.28 415.973 314.867 414.96 314.867C413.32 314.867 412.227 315.653 412.227 317.013C412.227 318.28 413.227 319.16 414.827 319.16ZM415.093 318.387C414.107 318.387 413.373 317.88 413.373 317.013C413.373 316.133 414.08 315.64 415.147 315.64C416.12 315.64 417.04 316.187 417.04 316.987C417.04 317.8 416.107 318.387 415.093 318.387ZM420.922 311.053C421.348 311.053 421.655 310.76 421.655 310.347C421.655 309.933 421.348 309.64 420.922 309.64C420.482 309.64 420.188 309.933 420.188 310.347C420.188 310.76 420.482 311.053 420.922 311.053ZM420.322 319H421.508V312.147H420.322V319ZM423.666 319H424.853V314.96C424.853 313.667 425.64 313.027 426.693 313.027C427.84 313.027 428.32 313.76 428.32 314.84V319H429.52V314.667C429.52 313.013 428.546 311.987 427.026 311.987C425.88 311.987 425.12 312.493 424.8 313.24V312.147H423.666V319ZM432.211 311.053C432.638 311.053 432.944 310.76 432.944 310.347C432.944 309.933 432.638 309.64 432.211 309.64C431.771 309.64 431.478 309.933 431.478 310.347C431.478 310.76 431.771 311.053 432.211 311.053ZM431.611 319H432.798V312.147H431.611V319ZM434.955 319H436.142V314.96C436.142 313.667 436.929 313.027 437.982 313.027C439.129 313.027 439.609 313.76 439.609 314.84V319H440.809V314.667C440.809 313.013 439.835 311.987 438.315 311.987C437.169 311.987 436.409 312.493 436.089 313.24V312.147H434.955V319ZM445.633 321.48C447.407 321.48 448.713 320.4 448.713 318.973V312.147H447.567V313.213C447.3 312.64 446.54 311.987 445.3 311.987C443.487 311.987 442.487 313.253 442.487 314.8V315.907C442.487 317.427 443.5 318.707 445.287 318.707C446.38 318.707 447.287 318.093 447.513 317.493V318.947C447.513 319.92 446.753 320.547 445.633 320.547C444.74 320.547 444.113 320.28 443.767 319.667H442.607C442.953 320.827 444.207 321.48 445.633 321.48ZM445.54 317.747C444.313 317.747 443.673 317.013 443.673 315.827V314.88C443.673 313.667 444.327 312.96 445.58 312.96C446.687 312.96 447.513 313.827 447.513 314.933V315.8C447.513 317.027 446.633 317.747 445.54 317.747ZM457.078 319.187C459.092 319.187 460.598 318.107 460.598 316.387C460.598 315.173 459.812 314.4 458.612 314.08L455.945 313.373C455.198 313.173 454.865 312.76 454.865 312.04C454.865 311 455.718 310.44 456.958 310.44C458.332 310.44 459.105 311.173 459.105 312.2V312.4H460.238V312.173C460.238 310.573 458.905 309.48 456.958 309.48C454.998 309.48 453.678 310.467 453.678 312.133C453.678 313.28 454.225 314.04 455.585 314.387L458.185 315.067C458.998 315.28 459.412 315.773 459.412 316.48C459.412 317.6 458.532 318.227 457.092 318.227C455.612 318.227 454.718 317.467 454.718 316.36V316.147H453.558V316.387C453.558 318.12 455.038 319.187 457.078 319.187ZM465.15 319.16C466.603 319.16 467.763 318.28 467.99 317.04H466.923C466.71 317.747 466.123 318.267 465.15 318.267C463.803 318.267 463.243 317.36 463.243 316.267V316.04H468.056V314.973C468.056 313.307 467.083 311.987 465.11 311.987C463.15 311.987 462.083 313.24 462.083 315.093V316.16C462.083 318.027 463.336 319.16 465.15 319.16ZM463.243 315.147V314.973C463.243 313.787 463.736 312.88 465.11 312.88C466.363 312.88 466.936 313.72 466.936 314.867V315.147H463.243ZM472.186 319H473.133V318.027H472.44C471.733 318.027 471.506 317.76 471.506 317.12V313.12H473.186V312.147H471.506V310.2H470.306V312.147H469.186V313.12H470.306V317.147C470.306 318.32 470.866 319 472.186 319ZM481.063 319.187C483.076 319.187 484.583 318.107 484.583 316.387C484.583 315.173 483.796 314.4 482.596 314.08L479.929 313.373C479.183 313.173 478.849 312.76 478.849 312.04C478.849 311 479.703 310.44 480.943 310.44C482.316 310.44 483.089 311.173 483.089 312.2V312.4H484.223V312.173C484.223 310.573 482.889 309.48 480.943 309.48C478.983 309.48 477.663 310.467 477.663 312.133C477.663 313.28 478.209 314.04 479.569 314.387L482.169 315.067C482.983 315.28 483.396 315.773 483.396 316.48C483.396 317.6 482.516 318.227 481.076 318.227C479.596 318.227 478.703 317.467 478.703 316.36V316.147H477.543V316.387C477.543 318.12 479.023 319.187 481.063 319.187ZM487.081 311.053C487.507 311.053 487.814 310.76 487.814 310.347C487.814 309.933 487.507 309.64 487.081 309.64C486.641 309.64 486.347 309.933 486.347 310.347C486.347 310.76 486.641 311.053 487.081 311.053ZM486.481 319H487.667V312.147H486.481V319ZM489.505 319H494.798V318.067H490.852L494.745 313.027V312.147H489.665V313.08H493.398L489.505 318.12V319ZM499.121 319.16C500.574 319.16 501.734 318.28 501.961 317.04H500.894C500.681 317.747 500.094 318.267 499.121 318.267C497.774 318.267 497.214 317.36 497.214 316.267V316.04H502.028V314.973C502.028 313.307 501.054 311.987 499.081 311.987C497.121 311.987 496.054 313.24 496.054 315.093V316.16C496.054 318.027 497.308 319.16 499.121 319.16ZM497.214 315.147V314.973C497.214 313.787 497.708 312.88 499.081 312.88C500.334 312.88 500.908 313.72 500.908 314.867V315.147H497.214Z" fill="black"></path>
          <path d="M416.473 210.187C418.447 210.187 419.98 208.733 419.98 206.933C419.98 205 418.647 203.813 417.047 203.813C416.46 203.813 415.993 203.933 415.673 204.24V204.227L418.273 200.667H416.313L413.967 204.053C413.407 204.853 412.98 205.68 412.98 206.92C412.98 208.8 414.3 210.187 416.473 210.187ZM416.487 208.733C415.38 208.733 414.793 207.973 414.793 206.973C414.793 205.947 415.473 205.213 416.5 205.213C417.567 205.213 418.18 205.947 418.18 206.96C418.18 207.933 417.5 208.733 416.487 208.733ZM421.557 210H425.81C427.677 210 428.97 208.933 428.97 207.373C428.97 206.107 428.197 205.373 427.237 205.173C427.89 204.8 428.41 204.093 428.41 203.027C428.41 201.627 427.383 200.667 425.743 200.667H421.557V210ZM423.37 204.533V202.133H425.317C426.09 202.133 426.543 202.587 426.543 203.293C426.543 204.013 426.117 204.533 425.33 204.533H423.37ZM423.37 208.533V205.987H425.703C426.583 205.987 427.103 206.48 427.103 207.253C427.103 208.04 426.61 208.533 425.717 208.533H423.37ZM433.328 210H435.194V206.227H439.314V204.68H435.194V202.213H439.714V200.667H433.328V210ZM442.098 202.307C442.712 202.307 443.152 201.853 443.152 201.253C443.152 200.653 442.712 200.2 442.098 200.2C441.485 200.2 441.045 200.653 441.045 201.253C441.045 201.853 441.485 202.307 442.098 202.307ZM441.192 210H443.005V203.067H441.192V210ZM444.913 210H446.726V205.893C446.726 204.96 447.246 204.48 448.06 204.48C448.94 204.48 449.326 205.053 449.326 205.853V210H451.14V205.56C451.14 203.893 450.193 202.907 448.686 202.907C447.7 202.907 446.993 203.253 446.646 203.893V203.067H444.913V210ZM455.776 210.16C457.309 210.16 458.549 209.24 458.789 207.973H457.202C457.029 208.453 456.549 208.853 455.776 208.853C454.722 208.853 454.309 208.147 454.309 207.333V207.16H458.842V205.947C458.842 204.28 457.802 202.907 455.749 202.907C453.669 202.907 452.549 204.24 452.549 206.12V207.067C452.549 209.013 453.816 210.16 455.776 210.16ZM454.309 205.88V205.813C454.309 204.88 454.709 204.187 455.749 204.187C456.722 204.187 457.176 204.84 457.176 205.707V205.88H454.309ZM460.196 206.547H464.182V204.92H460.196V206.547ZM468.094 210H469.348V208.533H468.614C468.134 208.533 467.961 208.347 467.961 207.893V204.533H469.441V203.067H467.961V201.173H466.134V203.067H465.148V204.533H466.134V208.027C466.134 209.253 466.761 210 468.094 210ZM473.158 210.16C474.052 210.16 474.852 209.76 475.172 209.173V210H476.905V203.067H475.092V207.24C475.092 208.107 474.612 208.64 473.772 208.64C472.958 208.64 472.545 208.133 472.545 207.253V203.067H470.732V207.507C470.732 209.08 471.598 210.16 473.158 210.16ZM478.689 210H480.502V205.893C480.502 204.96 481.022 204.48 481.836 204.48C482.716 204.48 483.102 205.053 483.102 205.853V210H484.916V205.56C484.916 203.893 483.969 202.907 482.462 202.907C481.476 202.907 480.769 203.253 480.422 203.893V203.067H478.689V210ZM487.658 202.307C488.272 202.307 488.712 201.853 488.712 201.253C488.712 200.653 488.272 200.2 487.658 200.2C487.045 200.2 486.605 200.653 486.605 201.253C486.605 201.853 487.045 202.307 487.658 202.307ZM486.752 210H488.565V203.067H486.752V210ZM490.473 210H492.286V205.893C492.286 204.96 492.806 204.48 493.619 204.48C494.499 204.48 494.886 205.053 494.886 205.853V210H496.699V205.56C496.699 203.893 495.753 202.907 494.246 202.907C493.259 202.907 492.553 203.253 492.206 203.893V203.067H490.473V210ZM501.442 212.48C503.375 212.48 504.762 211.333 504.762 209.853V203.067H503.029V203.907C502.789 203.44 502.042 202.907 500.975 202.907C499.082 202.907 498.109 204.24 498.109 205.787V206.8C498.109 208.32 499.095 209.68 500.962 209.68C501.855 209.68 502.655 209.213 502.949 208.733V209.827C502.949 210.6 502.362 211.107 501.442 211.107C500.735 211.107 500.189 210.893 499.949 210.413H498.189C498.469 211.72 499.815 212.48 501.442 212.48ZM501.389 208.227C500.402 208.227 499.909 207.587 499.909 206.707V205.907C499.909 204.96 500.429 204.36 501.442 204.36C502.309 204.36 502.949 204.973 502.949 205.907V206.707C502.949 207.68 502.242 208.227 501.389 208.227Z" fill="#226DE8"></path>
          <path d="M312.26 153.187C314.233 153.187 315.766 151.733 315.766 149.933C315.766 148 314.433 146.813 312.833 146.813C312.246 146.813 311.78 146.933 311.46 147.24V147.227L314.06 143.667H312.1L309.753 147.053C309.193 147.853 308.766 148.68 308.766 149.92C308.766 151.8 310.086 153.187 312.26 153.187ZM312.273 151.733C311.166 151.733 310.58 150.973 310.58 149.973C310.58 148.947 311.26 148.213 312.286 148.213C313.353 148.213 313.966 148.947 313.966 149.96C313.966 150.933 313.286 151.733 312.273 151.733ZM317.343 153H321.596C323.463 153 324.756 151.933 324.756 150.373C324.756 149.107 323.983 148.373 323.023 148.173C323.676 147.8 324.196 147.093 324.196 146.027C324.196 144.627 323.17 143.667 321.53 143.667H317.343V153ZM319.156 147.533V145.133H321.103C321.876 145.133 322.33 145.587 322.33 146.293C322.33 147.013 321.903 147.533 321.116 147.533H319.156ZM319.156 151.533V148.987H321.49C322.37 148.987 322.89 149.48 322.89 150.253C322.89 151.04 322.396 151.533 321.503 151.533H319.156ZM331.24 153H333.346L336.44 143.667H334.533L332.293 150.96L330.053 143.667H328.146L331.24 153ZM339.752 153.16C341.286 153.16 342.525 152.24 342.765 150.973H341.179C341.006 151.453 340.526 151.853 339.752 151.853C338.699 151.853 338.286 151.147 338.286 150.333V150.16H342.819V148.947C342.819 147.28 341.779 145.907 339.726 145.907C337.646 145.907 336.526 147.24 336.526 149.12V150.067C336.526 152.013 337.792 153.16 339.752 153.16ZM338.286 148.88V148.813C338.286 147.88 338.686 147.187 339.726 147.187C340.699 147.187 341.152 147.84 341.152 148.707V148.88H338.286ZM344.293 153H346.106V149.8C346.106 148.4 346.746 147.813 347.933 147.813H348.306V146.013H348.093C347.053 146.013 346.24 146.373 346.013 147.413V146.067H344.293V153ZM350.567 145.307C351.18 145.307 351.62 144.853 351.62 144.253C351.62 143.653 351.18 143.2 350.567 143.2C349.954 143.2 349.514 143.653 349.514 144.253C349.514 144.853 349.954 145.307 350.567 145.307ZM349.66 153H351.474V146.067H349.66V153ZM359.168 145.307C359.782 145.307 360.222 144.853 360.222 144.253C360.222 143.653 359.782 143.2 359.168 143.2C358.555 143.2 358.115 143.653 358.115 144.253C358.115 144.853 358.555 145.307 359.168 145.307ZM353.782 153H355.595V147.533H356.995V146.067H355.595V145.413C355.595 144.867 355.822 144.707 356.342 144.707H357.128V143.267H355.928C354.502 143.267 353.782 143.907 353.782 145.427V146.067H352.902V147.533H353.782V153ZM358.262 153H360.075V146.067H358.262V153ZM364.871 153.16C366.724 153.16 367.977 152 368.031 150.413H366.377C366.297 151.093 365.871 151.693 364.911 151.693C363.884 151.693 363.404 151.027 363.404 150.093V148.973C363.404 148.04 363.884 147.373 364.911 147.373C365.871 147.373 366.297 147.973 366.377 148.653H368.031C367.977 147.067 366.724 145.907 364.871 145.907C362.777 145.907 361.591 147.227 361.591 149.04V150.027C361.591 151.84 362.777 153.16 364.871 153.16ZM371.848 153.16C372.648 153.16 373.528 152.827 373.848 152.36V153H375.594V148.573C375.594 146.96 374.408 145.907 372.674 145.907C371.181 145.907 370.101 146.627 369.701 147.973H371.381C371.568 147.6 371.954 147.32 372.581 147.32C373.328 147.32 373.781 147.8 373.781 148.44V149.387C373.461 149.12 372.848 148.8 372.021 148.8C370.354 148.8 369.221 149.493 369.221 151C369.221 152.347 370.288 153.16 371.848 153.16ZM372.314 151.96C371.554 151.96 370.981 151.587 370.981 150.947C370.981 150.307 371.514 149.96 372.368 149.96C373.181 149.96 373.781 150.32 373.781 150.933C373.781 151.52 373.114 151.96 372.314 151.96ZM379.571 153H380.824V151.533H380.091C379.611 151.533 379.438 151.347 379.438 150.893V147.533H380.918V146.067H379.438V144.173H377.611V146.067H376.624V147.533H377.611V151.027C377.611 152.253 378.238 153 379.571 153ZM383.301 145.307C383.915 145.307 384.355 144.853 384.355 144.253C384.355 143.653 383.915 143.2 383.301 143.2C382.688 143.2 382.248 143.653 382.248 144.253C382.248 144.853 382.688 145.307 383.301 145.307ZM382.395 153H384.208V146.067H382.395V153ZM389.076 153.16C391.156 153.16 392.343 151.8 392.343 150.027V149.04C392.343 147.267 391.156 145.907 389.076 145.907C386.996 145.907 385.809 147.267 385.809 149.04V150.027C385.809 151.8 386.996 153.16 389.076 153.16ZM389.076 151.733C388.049 151.733 387.569 151.053 387.569 150.147V148.92C387.569 148.013 388.049 147.333 389.076 147.333C390.103 147.333 390.583 148.013 390.583 148.92V150.147C390.583 151.053 390.103 151.733 389.076 151.733ZM393.824 153H395.638V148.893C395.638 147.96 396.158 147.48 396.971 147.48C397.851 147.48 398.238 148.053 398.238 148.853V153H400.051V148.56C400.051 146.893 399.104 145.907 397.598 145.907C396.611 145.907 395.904 146.253 395.558 146.893V146.067H393.824V153Z" fill="#FF8326"></path>
          <path d="M5.16 119H6.26667V116.827H7.54667V115.907H6.26667V113.76H5.16V115.907H1.94667L4.90667 109.667H3.8L0.76 115.933V116.827H5.16V119ZM12.6977 119.187C14.7777 119.187 16.0177 117.853 16.0177 116.053V112.613C16.0177 110.813 14.7777 109.48 12.6977 109.48C10.631 109.48 9.37771 110.813 9.37771 112.613V116.053C9.37771 117.853 10.631 119.187 12.6977 119.187ZM12.6977 118.2C11.3377 118.2 10.591 117.36 10.591 116.08V112.587C10.591 111.307 11.3377 110.467 12.6977 110.467C14.0577 110.467 14.8177 111.307 14.8177 112.587V116.08C14.8177 117.36 14.0577 118.2 12.6977 118.2Z" fill="black"></path>
          <path d="M3.97333 170.187C5.77333 170.187 7.25333 169.013 7.25333 167.36C7.25333 165.747 6.04 164.72 4.36 164.72H4.08L6.93333 161.653V160.667H1.4V161.64H5.46667L2.74667 164.667V165.627H4.04C5.29333 165.627 6.08 166.333 6.08 167.4C6.08 168.427 5.25333 169.213 3.98667 169.213C2.81333 169.213 1.98667 168.533 1.89333 167.413H0.773333C0.84 169.213 2.32 170.187 3.97333 170.187ZM12.6717 170.187C14.7517 170.187 15.9917 168.853 15.9917 167.053V163.613C15.9917 161.813 14.7517 160.48 12.6717 160.48C10.605 160.48 9.35166 161.813 9.35166 163.613V167.053C9.35166 168.853 10.605 170.187 12.6717 170.187ZM12.6717 169.2C11.3117 169.2 10.565 168.36 10.565 167.08V163.587C10.565 162.307 11.3117 161.467 12.6717 161.467C14.0317 161.467 14.7917 162.307 14.7917 163.587V167.08C14.7917 168.36 14.0317 169.2 12.6717 169.2Z" fill="black"></path>
          <path d="M0.88 223H7V222.013H2.30667L5.4 218.907C6.18667 218.133 7 217.267 7 216.08C7 214.493 5.74667 213.48 4.01333 213.48C2.24 213.48 1.02667 214.453 1.02667 216.2V216.453H2.17333V216.253C2.17333 215.12 2.89333 214.467 4.01333 214.467C5.04 214.467 5.8 215.107 5.8 216.08C5.8 216.787 5.41333 217.373 4.78667 218.013L0.88 222.067V223ZM12.4503 223.187C14.5303 223.187 15.7703 221.853 15.7703 220.053V216.613C15.7703 214.813 14.5303 213.48 12.4503 213.48C10.3836 213.48 9.13031 214.813 9.13031 216.613V220.053C9.13031 221.853 10.3836 223.187 12.4503 223.187ZM12.4503 222.2C11.0903 222.2 10.3436 221.36 10.3436 220.08V216.587C10.3436 215.307 11.0903 214.467 12.4503 214.467C13.8103 214.467 14.5703 215.307 14.5703 216.587V220.08C14.5703 221.36 13.8103 222.2 12.4503 222.2Z" fill="black"></path>
          <path d="M2.34667 275H3.56V265.667H2.56L0.4 266.693V267.8L2.34667 266.92V275ZM9.35135 275.187C11.4314 275.187 12.6714 273.853 12.6714 272.053V268.613C12.6714 266.813 11.4314 265.48 9.35135 265.48C7.28469 265.48 6.03135 266.813 6.03135 268.613V272.053C6.03135 273.853 7.28469 275.187 9.35135 275.187ZM9.35135 274.2C7.99135 274.2 7.24469 273.36 7.24469 272.08V268.587C7.24469 267.307 7.99135 266.467 9.35135 266.467C10.7114 266.467 11.4714 267.307 11.4714 268.587V272.08C11.4714 273.36 10.7114 274.2 9.35135 274.2Z" fill="black"></path>
          <path d="M15.202 365.187C17.1887 365.187 18.6154 363.8 18.6154 362C18.6154 360.227 17.3354 358.907 15.5754 358.907C14.7087 358.907 13.9087 359.253 13.4954 359.747L14.0287 356.653H17.802V355.667H13.0687L12.1887 360.92H13.3354C13.7354 360.347 14.402 359.893 15.322 359.893C16.5754 359.893 17.4287 360.853 17.4287 362.027C17.4287 363.28 16.562 364.2 15.202 364.2C14.1087 364.2 13.3887 363.56 13.1487 362.667H12.002C12.282 364.28 13.642 365.187 15.202 365.187ZM23.949 365.187C26.029 365.187 27.269 363.853 27.269 362.053V358.613C27.269 356.813 26.029 355.48 23.949 355.48C21.8823 355.48 20.629 356.813 20.629 358.613V362.053C20.629 363.853 21.8823 365.187 23.949 365.187ZM23.949 364.2C22.589 364.2 21.8423 363.36 21.8423 362.08V358.587C21.8423 357.307 22.589 356.467 23.949 356.467C25.309 356.467 26.069 357.307 26.069 358.587V362.08C26.069 363.36 25.309 364.2 23.949 364.2ZM32.7068 365.187C34.7868 365.187 36.0268 363.853 36.0268 362.053V358.613C36.0268 356.813 34.7868 355.48 32.7068 355.48C30.6402 355.48 29.3868 356.813 29.3868 358.613V362.053C29.3868 363.853 30.6402 365.187 32.7068 365.187ZM32.7068 364.2C31.3468 364.2 30.6002 363.36 30.6002 362.08V358.587C30.6002 357.307 31.3468 356.467 32.7068 356.467C34.0668 356.467 34.8268 357.307 34.8268 358.587V362.08C34.8268 363.36 34.0668 364.2 32.7068 364.2Z" fill="black"></path>
          <path d="M126.347 365H127.56V355.667H126.56L124.4 356.693V357.8L126.347 356.92V365ZM133.351 365.187C135.431 365.187 136.671 363.853 136.671 362.053V358.613C136.671 356.813 135.431 355.48 133.351 355.48C131.285 355.48 130.031 356.813 130.031 358.613V362.053C130.031 363.853 131.285 365.187 133.351 365.187ZM133.351 364.2C131.991 364.2 131.245 363.36 131.245 362.08V358.587C131.245 357.307 131.991 356.467 133.351 356.467C134.711 356.467 135.471 357.307 135.471 358.587V362.08C135.471 363.36 134.711 364.2 133.351 364.2ZM142.109 365.187C144.189 365.187 145.429 363.853 145.429 362.053V358.613C145.429 356.813 144.189 355.48 142.109 355.48C140.042 355.48 138.789 356.813 138.789 358.613V362.053C138.789 363.853 140.042 365.187 142.109 365.187ZM142.109 364.2C140.749 364.2 140.002 363.36 140.002 362.08V358.587C140.002 357.307 140.749 356.467 142.109 356.467C143.469 356.467 144.229 357.307 144.229 358.587V362.08C144.229 363.36 143.469 364.2 142.109 364.2ZM150.867 365.187C152.947 365.187 154.187 363.853 154.187 362.053V358.613C154.187 356.813 152.947 355.48 150.867 355.48C148.8 355.48 147.547 356.813 147.547 358.613V362.053C147.547 363.853 148.8 365.187 150.867 365.187ZM150.867 364.2C149.507 364.2 148.76 363.36 148.76 362.08V358.587C148.76 357.307 149.507 356.467 150.867 356.467C152.227 356.467 152.987 357.307 152.987 358.587V362.08C152.987 363.36 152.227 364.2 150.867 364.2Z" fill="black"></path>
          <path d="M237.88 365H244V364.013H239.307L242.4 360.907C243.187 360.133 244 359.267 244 358.08C244 356.493 242.747 355.48 241.013 355.48C239.24 355.48 238.027 356.453 238.027 358.2V358.453H239.173V358.253C239.173 357.12 239.893 356.467 241.013 356.467C242.04 356.467 242.8 357.107 242.8 358.08C242.8 358.787 242.413 359.373 241.787 360.013L237.88 364.067V365ZM249.45 365.187C251.53 365.187 252.77 363.853 252.77 362.053V358.613C252.77 356.813 251.53 355.48 249.45 355.48C247.384 355.48 246.13 356.813 246.13 358.613V362.053C246.13 363.853 247.384 365.187 249.45 365.187ZM249.45 364.2C248.09 364.2 247.344 363.36 247.344 362.08V358.587C247.344 357.307 248.09 356.467 249.45 356.467C250.81 356.467 251.57 357.307 251.57 358.587V362.08C251.57 363.36 250.81 364.2 249.45 364.2ZM258.208 365.187C260.288 365.187 261.528 363.853 261.528 362.053V358.613C261.528 356.813 260.288 355.48 258.208 355.48C256.141 355.48 254.888 356.813 254.888 358.613V362.053C254.888 363.853 256.141 365.187 258.208 365.187ZM258.208 364.2C256.848 364.2 256.101 363.36 256.101 362.08V358.587C256.101 357.307 256.848 356.467 258.208 356.467C259.568 356.467 260.328 357.307 260.328 358.587V362.08C260.328 363.36 259.568 364.2 258.208 364.2ZM266.966 365.187C269.046 365.187 270.286 363.853 270.286 362.053V358.613C270.286 356.813 269.046 355.48 266.966 355.48C264.899 355.48 263.646 356.813 263.646 358.613V362.053C263.646 363.853 264.899 365.187 266.966 365.187ZM266.966 364.2C265.606 364.2 264.859 363.36 264.859 362.08V358.587C264.859 357.307 265.606 356.467 266.966 356.467C268.326 356.467 269.086 357.307 269.086 358.587V362.08C269.086 363.36 268.326 364.2 266.966 364.2Z" fill="black"></path>
          <path d="M359.16 365H360.267V362.827H361.547V361.907H360.267V359.76H359.16V361.907H355.947L358.907 355.667H357.8L354.76 361.933V362.827H359.16V365ZM366.698 365.187C368.778 365.187 370.018 363.853 370.018 362.053V358.613C370.018 356.813 368.778 355.48 366.698 355.48C364.631 355.48 363.378 356.813 363.378 358.613V362.053C363.378 363.853 364.631 365.187 366.698 365.187ZM366.698 364.2C365.338 364.2 364.591 363.36 364.591 362.08V358.587C364.591 357.307 365.338 356.467 366.698 356.467C368.058 356.467 368.818 357.307 368.818 358.587V362.08C368.818 363.36 368.058 364.2 366.698 364.2ZM375.456 365.187C377.536 365.187 378.776 363.853 378.776 362.053V358.613C378.776 356.813 377.536 355.48 375.456 355.48C373.389 355.48 372.136 356.813 372.136 358.613V362.053C372.136 363.853 373.389 365.187 375.456 365.187ZM375.456 364.2C374.096 364.2 373.349 363.36 373.349 362.08V358.587C373.349 357.307 374.096 356.467 375.456 356.467C376.816 356.467 377.576 357.307 377.576 358.587V362.08C377.576 363.36 376.816 364.2 375.456 364.2ZM384.213 365.187C386.293 365.187 387.533 363.853 387.533 362.053V358.613C387.533 356.813 386.293 355.48 384.213 355.48C382.147 355.48 380.893 356.813 380.893 358.613V362.053C380.893 363.853 382.147 365.187 384.213 365.187ZM384.213 364.2C382.853 364.2 382.107 363.36 382.107 362.08V358.587C382.107 357.307 382.853 356.467 384.213 356.467C385.573 356.467 386.333 357.307 386.333 358.587V362.08C386.333 363.36 385.573 364.2 384.213 364.2Z" fill="black"></path>
          <path opacity="0.2" d="M141 315L29 323V318L141 306L255 274L371.5 196L499 116.5V123L371.5 220L255 298L141 315Z" fill="#FF8326"></path>
          <path d="M472.2 365.187C474.133 365.187 475.493 364.093 475.493 362.493C475.493 361.12 474.587 360.387 473.693 360.147C474.533 359.747 475.107 359.027 475.107 358C475.107 356.427 473.893 355.48 472.2 355.48C470.52 355.48 469.307 356.427 469.307 358C469.307 359.027 469.88 359.747 470.72 360.147C469.827 360.387 468.92 361.12 468.92 362.493C468.92 364.093 470.28 365.187 472.2 365.187ZM472.2 359.747C471.173 359.747 470.44 359 470.44 358.08C470.44 357.04 471.133 356.387 472.2 356.387C473.28 356.387 473.973 357.04 473.973 358.08C473.973 359 473.24 359.747 472.2 359.747ZM472.2 364.267C470.987 364.267 470.08 363.573 470.08 362.493C470.08 361.333 470.947 360.667 472.2 360.667C473.467 360.667 474.333 361.333 474.333 362.493C474.333 363.573 473.427 364.267 472.2 364.267ZM480.958 365.187C483.038 365.187 484.278 363.853 484.278 362.053V358.613C484.278 356.813 483.038 355.48 480.958 355.48C478.891 355.48 477.638 356.813 477.638 358.613V362.053C477.638 363.853 478.891 365.187 480.958 365.187ZM480.958 364.2C479.598 364.2 478.851 363.36 478.851 362.08V358.587C478.851 357.307 479.598 356.467 480.958 356.467C482.318 356.467 483.078 357.307 483.078 358.587V362.08C483.078 363.36 482.318 364.2 480.958 364.2ZM489.716 365.187C491.796 365.187 493.036 363.853 493.036 362.053V358.613C493.036 356.813 491.796 355.48 489.716 355.48C487.649 355.48 486.396 356.813 486.396 358.613V362.053C486.396 363.853 487.649 365.187 489.716 365.187ZM489.716 364.2C488.356 364.2 487.609 363.36 487.609 362.08V358.587C487.609 357.307 488.356 356.467 489.716 356.467C491.076 356.467 491.836 357.307 491.836 358.587V362.08C491.836 363.36 491.076 364.2 489.716 364.2ZM498.474 365.187C500.554 365.187 501.794 363.853 501.794 362.053V358.613C501.794 356.813 500.554 355.48 498.474 355.48C496.407 355.48 495.154 356.813 495.154 358.613V362.053C495.154 363.853 496.407 365.187 498.474 365.187ZM498.474 364.2C497.114 364.2 496.367 363.36 496.367 362.08V358.587C496.367 357.307 497.114 356.467 498.474 356.467C499.834 356.467 500.594 357.307 500.594 358.587V362.08C500.594 363.36 499.834 364.2 498.474 364.2Z" fill="black"></path>
          <path d="M4.21333 326.187C6.29333 326.187 7.53333 324.853 7.53333 323.053V319.613C7.53333 317.813 6.29333 316.48 4.21333 316.48C2.14667 316.48 0.893333 317.813 0.893333 319.613V323.053C0.893333 324.853 2.14667 326.187 4.21333 326.187ZM4.21333 325.2C2.85333 325.2 2.10667 324.36 2.10667 323.08V319.587C2.10667 318.307 2.85333 317.467 4.21333 317.467C5.57333 317.467 6.33333 318.307 6.33333 319.587V323.08C6.33333 324.36 5.57333 325.2 4.21333 325.2Z" fill="black"></path>
          <line x1="0.760742" y1="333.5" x2="500" y2="333.5" stroke="black"></line>
          <line opacity="0.0875" x1="0.760742" y1="281.5" x2="500" y2="281.5" stroke="black"></line>
          <line opacity="0.0875" x1="0.760742" y1="229.5" x2="500" y2="229.5" stroke="black"></line>
          <path d="M27.4414 321L139 310.814L254.566 284.5L368.005 211.5L500 119.5" stroke="#FF8326" stroke-width="2"></path>
          <line opacity="0.1" x1="0.760742" y1="177.5" x2="500" y2="177.5" stroke="black"></line>
          <line opacity="0.0875" x1="0.760742" y1="125.5" x2="500" y2="125.5" stroke="black"></line>
          <line opacity="0.0875" x1="0.760742" y1="73.5" x2="500" y2="73.5" stroke="black"></line>
          <line opacity="0.0875" x1="0.760742" y1="21.5" x2="500" y2="21.5" stroke="black"></line>
          <line x1="24.8535" y1="334" x2="24.8535" y2="342" stroke="black"></line>
          <line x1="140.53" y1="334" x2="140.53" y2="342" stroke="black"></line>
          <line x1="255.446" y1="334" x2="255.446" y2="342" stroke="black"></line>
          <line x1="371.124" y1="334" x2="371.124" y2="342" stroke="black"></line>
          <line x1="486.802" y1="334" x2="486.802" y2="342" stroke="black"></line>
          <path d="M27.4414 294L141.553 288C186.482 283.118 211.672 280.382 256.601 275.5L372 259.46L499.5 231.46" stroke="#226DE8" stroke-width="2"></path>
          <circle cx="29" cy="317" r="2" fill="#FF8326"></circle>
          <circle cx="29" cy="323" r="2" fill="#FF8326"></circle>
          <circle cx="29" cy="321" r="2" fill="#FF8326"></circle>
          <circle cx="29" cy="291" r="2" fill="#226DE8"></circle>
          <circle cx="29" cy="297" r="2" fill="#226DE8"></circle>
          <circle cx="29" cy="293" r="2" fill="#226DE8"></circle>
          <circle cx="141" cy="287" r="2" fill="#226DE8"></circle>
          <circle cx="141" cy="289" r="2" fill="#226DE8"></circle>
          <circle cx="255" cy="274" r="2" fill="#226DE8"></circle>
          <circle cx="255" cy="276" r="2" fill="#226DE8"></circle>
          <circle cx="371" cy="254" r="2" fill="#226DE8"></circle>
          <circle cx="371" cy="262" r="2" fill="#226DE8"></circle>
          <circle cx="371" cy="265" r="2" fill="#226DE8"></circle>
          <circle cx="498" cy="224" r="2" fill="#226DE8"></circle>
          <circle cx="498" cy="232" r="2" fill="#226DE8"></circle>
          <circle cx="498" cy="239" r="2" fill="#226DE8"></circle>
          <circle cx="141" cy="305" r="2" fill="#FF8326"></circle>
          <circle cx="141" cy="316" r="2" fill="#FF8326"></circle>
          <circle cx="141" cy="311" r="2" fill="#FF8326"></circle>
          <circle cx="255" cy="277" r="2" fill="#FF8326"></circle>
          <circle cx="255" cy="298" r="2" fill="#FF8326"></circle>
          <path opacity="0.2" d="M141.5 289L28.5 297V290L141.5 287.5L255 275.5L371 254L498 223.5V239.5L371 265.5L255 277L141.5 289Z" fill="#226DE8"></path>
          <circle cx="255" cy="283" r="2" fill="#FF8326"></circle>
          <circle cx="371" cy="198" r="2" fill="#FF8326"></circle>
          <circle cx="371" cy="222" r="2" fill="#FF8326"></circle>
          <circle cx="371" cy="203" r="2" fill="#FF8326"></circle>
          <circle cx="498" cy="117" r="2" fill="#FF8326"></circle>
          <circle cx="498" cy="123" r="2" fill="#FF8326"></circle>
        </svg>