<svg width="256" height="256" viewBox="0 0 256 256" fill="none" xmlns="http://www.w3.org/2000/svg">
<g clip-path="url(#clip0_1_15)">
<path d="M244.369 74.3375V76.3012H245.937C246.72 76.3012 247.116 75.9044 247.116 75.1209C247.116 74.7309 246.72 74.3375 245.548 74.3375H244.369Z" fill="white"/>
<path fill-rule="evenodd" clip-rule="evenodd" d="M250.65 76.6946C250.65 73.9441 248.295 71.587 245.548 71.587C242.793 71.587 240.835 73.9441 240.835 76.6946C240.835 79.4451 242.796 81.8022 245.548 81.8022C248.295 81.8022 250.65 79.4451 250.65 76.6946ZM247.899 78.6583L248.685 79.8385H247.116L246.72 78.6583L246.7 78.6385C246.317 78.2485 245.941 77.8649 245.941 77.478C245.744 77.478 245.546 77.3793 245.349 77.2807C245.152 77.1826 244.956 77.0846 244.762 77.0846H244.372V79.8385H243.193V73.5507H246.33C247.899 73.5507 248.295 74.3375 248.295 75.1209C248.295 76.3012 247.899 77.0846 246.72 77.0846C247.12 77.0846 247.509 77.478 247.899 78.6583Z" fill="white"/>
<path d="M61.0631 152.528C61.4561 147.814 58.3154 143.49 45.363 145.453C46.593 142.728 48.3735 139.057 50.3966 134.886C57.4122 120.424 67.3437 99.9495 67.3411 92.0207C67.7341 88.4834 66.1655 85.3395 59.8841 85.3395C53.2131 85.3395 49.2863 88.09 45.756 93.5909C38.299 104.986 22.9885 140.346 23.3815 155.672C23.3815 164.317 30.0559 167.851 37.513 167.851C48.1107 168.244 59.8841 165.494 61.0631 152.528Z" fill="white"/>
<path d="M87.3213 133.787L87.3609 133.668C98.3516 135.632 107.381 134.845 110.521 124.637C112.876 116.779 106.988 114.028 94.0353 115.598C96.3934 109.31 98.748 105.777 98.748 105.777C101.496 105.777 106.205 105.777 109.346 105.383C116.41 104.99 123.87 101.846 123.87 93.2009C123.87 87.3099 116.02 84.166 109.739 84.166C94.8213 84.166 86.1887 86.5231 77.9456 103.416C70.8782 116.775 63.8142 137.205 63.8142 150.958C63.8142 162.357 72.8399 168.248 83.4376 168.248C92.8563 168.248 106.988 164.714 106.988 152.138C106.988 147.031 102.671 144.28 96.783 144.28C92.1397 144.28 89.1775 144.842 85.7668 145.489C85.1409 145.607 84.4999 145.729 83.8306 145.85C84.9867 140.827 86.5263 136.185 87.3213 133.787Z" fill="white"/>
<path d="M145.059 106.163C146.634 103.806 148.989 101.449 152.523 101.449C157.125 101.449 156.477 103.707 155.707 106.387C155.69 106.446 155.673 106.505 155.657 106.563C152.523 115.205 161.548 115.205 163.903 115.205C171.36 114.421 175.673 109.707 176.852 101.062C178.421 89.2736 168.612 84.5594 156.046 84.5594C135.244 84.5594 127.001 97.5251 119.151 115.598C115.62 124.243 110.908 138.782 110.908 148.211C110.908 161.176 118.761 168.248 131.713 168.248C150.558 168.248 163.507 153.315 167.43 134.848C168.612 128.954 170.181 118.345 155.657 118.739C148.2 119.132 143.487 120.702 141.132 128.56C138.778 136.025 147.81 136.419 147.81 136.419C145.845 144.277 140.743 149.384 136.033 149.384C133.286 149.384 130.538 148.207 131.717 141.92C132.896 133.275 141.136 111.664 145.059 106.163Z" fill="white"/>
<path fill-rule="evenodd" clip-rule="evenodd" d="M218.853 150.171C223.956 140.739 229.058 127.774 231.413 116.772C233.378 107.343 237.691 84.9461 212.965 84.9495C191.77 84.5561 185.102 98.6985 178.424 115.988C174.497 125.417 170.184 139.956 170.184 150.171C170.184 164.71 180.779 168.244 190.201 168.244C199.227 168.244 209.828 166.281 218.853 150.171ZM200.406 144.667C203.546 139.166 213.361 112.448 213.751 105.77C213.751 104.2 213.361 101.842 210.217 101.839C208.252 101.839 206.294 102.232 204.725 104.59C200.795 109.697 189.811 139.559 190.201 145.45C190.201 147.417 191.377 149.381 194.124 149.381C196.872 149.381 198.837 147.417 200.406 144.667Z" fill="white"/>
<path fill-rule="evenodd" clip-rule="evenodd" d="M239.659 76.698C239.659 73.1607 242.403 70.4102 245.548 70.4102C246.375 70.4002 247.197 70.556 247.963 70.8684C248.73 71.1809 249.426 71.6436 250.012 72.2295C250.597 72.8154 251.059 73.5126 251.371 74.28C251.683 75.0474 251.839 75.8695 251.829 76.698C251.839 77.5266 251.684 78.349 251.372 79.1166C251.06 79.8842 250.598 80.5815 250.013 81.1675C249.427 81.7535 248.73 82.2162 247.964 82.5285C247.197 82.8408 246.375 82.9963 245.548 82.9858C242.407 82.9858 239.659 80.2319 239.659 76.698ZM183.133 89.6636C189.411 82.1956 198.444 77.088 211.786 77.088C234.946 77.088 241.224 92.4107 240.435 106.563C240.045 115.205 237.298 125.42 234.943 131.708C225.917 158.819 214.927 176.109 189.808 176.109C178.421 176.109 167.826 171.395 163.903 160.393C156.446 169.821 145.059 176.109 131.717 176.109C121.902 176.109 114.052 172.572 108.949 166.677C103.061 172.965 93.2493 176.109 83.4376 176.109C74.4085 176.109 66.9515 172.965 62.2421 167.464C56.7434 172.965 48.1107 176.109 37.12 175.716C23.3815 175.326 15.5315 167.074 15.5315 155.285C15.1385 137.606 32.0176 100.279 39.0816 89.277C43.791 81.0255 50.855 77.0948 59.4911 77.0948C64.5934 77.0948 69.6958 78.2716 72.8365 81.4155C75.1945 84.166 75.5841 86.5231 75.9772 91.2373C83.8306 78.2716 97.1726 76.7014 109.342 76.7014C118.761 76.7014 126.218 80.2353 129.752 85.3429C136.033 80.2353 144.662 76.7014 155.657 76.7014C166.651 76.7014 174.894 79.4485 179.996 85.3429C181.175 86.5197 181.954 87.6966 183.133 89.6636Z" fill="white"/>
<path fill-rule="evenodd" clip-rule="evenodd" d="M233.378 130.918C235.733 124.236 238.091 114.415 238.48 106.557C238.87 100.272 238.091 92.0207 232.595 86.1195C227.883 81.4053 220.822 78.6549 211.789 78.6549C200.409 78.6549 190.994 82.9756 184.316 90.8337L182.747 93.1908L181.568 90.4402C180.834 89.2172 180.251 88.4494 179.727 87.7599C179.41 87.3423 179.115 86.9534 178.821 86.5095C174.108 81.402 166.261 78.6515 155.66 78.6515C145.845 78.6515 136.819 81.4019 130.931 86.9029L129.362 88.0832L128.183 86.5129C125.043 81.7988 117.585 78.6549 109.342 78.6549C97.1727 78.6549 85.0063 80.2251 77.5493 92.0139L74.4086 97.1215L74.0155 91.2271C74.0155 86.9029 73.6225 84.9393 71.6609 82.5822C69.3062 80.2285 65.3829 79.0483 59.4945 79.0483C51.2515 79.0483 44.9701 82.5856 40.6537 90.0502C33.5897 101.442 16.7106 137.985 17.1036 155.272C17.4966 166.667 24.9536 173.742 37.513 174.135C47.7178 174.135 55.5678 171.385 60.6702 166.277L62.2388 165.097L63.4178 166.277C68.1272 171.381 75.1912 174.135 83.4343 174.135C93.6424 174.135 102.668 170.991 107.77 165.49L108.946 163.92L110.518 165.49C115.227 171.385 122.684 174.529 131.714 174.529C143.887 174.139 154.871 168.638 162.328 159.206L164.293 156.849L165.472 159.599C170.185 172.172 182.744 174.139 189.811 174.139C214.141 174.139 224.345 157.636 233.378 130.918ZM235.383 150.056C238.924 142.972 245.213 125.65 246.395 116.598C246.446 116.096 246.499 115.596 246.552 115.095C247.696 104.214 248.802 93.6921 241.283 83.5308C235.774 76.0489 226.731 70.9318 212.577 70.9318C201.562 70.9318 192.123 73.6874 184.652 79.9869C177.968 73.6874 168.529 70.5377 155.946 70.5377C146.113 70.5377 137.854 72.8991 130.777 77.2279C125.271 72.8991 119.372 70.5377 109.542 70.5377C100.496 70.5377 88.3072 70.9318 78.8676 78.8045C76.5085 74.4757 72.1842 70.9318 59.9918 70.9318C48.5902 70.9318 39.5443 76.4464 33.645 86.2864C25.39 98.8821 8.47947 135.887 8.87321 156.356C9.26356 171.707 20.6685 181.941 37.1853 182.335C47.0152 182.729 55.6674 180.365 61.9605 176.036C67.8598 180.365 75.3307 182.729 83.5891 182.729C93.4191 182.729 102.465 179.97 109.148 175.247C115.048 180.365 122.912 182.729 131.958 182.729C143.363 182.729 154.374 178.791 163.027 171.313C168.926 178.791 179.15 182.729 191.342 182.729C214.539 182.729 226.341 168.557 235.383 150.056Z" fill="#FFF22D"/>
<path fill-rule="evenodd" clip-rule="evenodd" d="M244.369 76.3012V74.3375H245.548C246.72 74.3375 247.116 74.7309 247.116 75.1209C247.116 75.9043 246.72 76.3012 245.937 76.3012H244.369ZM248.685 79.8385L247.899 78.6582C247.509 77.478 247.12 77.0846 246.72 77.0846C247.899 77.0846 248.295 76.3012 248.295 75.1209C248.295 74.3375 247.899 73.5507 246.33 73.5507H243.193V79.8385H244.372V77.0846H244.762C245.151 77.0846 245.548 77.478 245.941 77.478C245.941 77.8714 246.33 78.2614 246.72 78.6582L247.116 79.8385H248.685V79.8385ZM245.548 71.587C248.295 71.587 250.65 73.9441 250.65 76.6946C250.65 79.445 248.295 81.8021 245.548 81.8021C242.797 81.8021 240.835 79.445 240.835 76.6946C240.835 73.9441 242.793 71.587 245.548 71.587V71.587ZM245.548 70.4102C242.404 70.4102 239.659 73.1606 239.659 76.6979C239.659 80.2319 242.407 82.9858 245.548 82.9858C246.375 82.9962 247.197 82.8408 247.964 82.5285C248.731 82.2162 249.427 81.7534 250.013 81.1675C250.598 80.5815 251.06 79.8841 251.372 79.1165C251.684 78.3489 251.839 77.5266 251.829 76.6979C251.839 75.8694 251.683 75.0473 251.371 74.2799C251.059 73.5125 250.597 72.8154 250.012 72.2295C249.426 71.6436 248.73 71.1808 247.963 70.8684C247.197 70.5559 246.375 70.4001 245.548 70.4102ZM211.786 77.088C198.444 77.088 189.411 82.1956 183.133 89.6636C181.954 87.6965 181.175 86.5197 179.996 85.3428C174.894 79.4484 166.651 76.7013 155.657 76.7013C144.663 76.7013 136.033 80.2353 129.752 85.3428C126.218 80.2353 118.761 76.7013 109.342 76.7013C97.1726 76.7013 83.8306 78.2716 75.9772 91.2372C75.5842 86.5231 75.1946 84.166 72.8365 81.4155C69.6958 78.2716 64.5935 77.0948 59.4911 77.0948C50.855 77.0948 43.791 81.0255 39.0817 89.2769C32.0176 100.279 15.1385 137.606 15.5315 155.285C15.5315 167.074 23.3816 175.326 37.12 175.716C48.1107 176.109 56.7434 172.965 62.2422 167.464C66.9515 172.965 74.4086 176.109 83.4376 176.109C93.2493 176.109 103.061 172.965 108.949 166.677C114.052 172.572 121.902 176.109 131.717 176.109C145.059 176.109 156.446 169.821 163.903 160.393C167.826 171.395 178.421 176.109 189.808 176.109C214.927 176.109 225.917 158.819 234.943 131.708C237.298 125.42 240.045 115.205 240.435 106.563C241.225 92.4107 234.946 77.088 211.786 77.088V77.088ZM45.3631 145.453C58.3155 143.49 61.4561 147.814 61.0631 152.528C59.8841 165.494 48.1107 168.244 37.513 167.851C30.056 167.851 23.3816 164.317 23.3816 155.672C22.9886 140.346 38.299 104.986 45.7561 93.5909C49.2864 88.0899 53.2131 85.3394 59.8841 85.3394C66.1655 85.3394 67.7342 88.4834 67.3411 92.0207C67.3445 102.236 50.8584 133.275 45.3631 145.453V145.453ZM87.3609 133.668C86.5783 136.029 85.0063 140.743 83.8306 145.85C88.147 145.067 91.2877 144.28 96.783 144.28C102.671 144.28 106.988 147.03 106.988 152.138C106.988 164.714 92.8563 168.248 83.4376 168.248C72.8399 168.248 63.8142 162.357 63.8142 150.958C63.8142 137.205 70.8782 116.775 77.9456 103.416C86.1887 86.5231 94.8214 84.166 109.739 84.166C116.02 84.166 123.87 87.3099 123.87 93.2009C123.87 101.846 116.41 104.99 109.346 105.383C106.205 105.776 101.496 105.777 98.7481 105.777C98.7481 105.777 96.3934 109.31 94.0353 115.598C106.988 114.028 112.876 116.778 110.521 124.637C107.381 134.845 98.3517 135.632 87.3609 133.668V133.668ZM152.523 101.449C148.989 101.449 146.634 103.806 145.059 106.163C141.136 111.664 132.896 133.275 131.717 141.92C130.538 148.207 133.286 149.384 136.033 149.384C140.743 149.384 145.845 144.277 147.81 136.419C147.81 136.419 138.778 136.025 141.132 128.56C143.487 120.702 148.2 119.132 155.657 118.739C170.181 118.345 168.612 128.954 167.43 134.848C163.507 153.315 150.558 168.248 131.714 168.248C118.761 168.248 110.908 161.176 110.908 148.211C110.908 138.782 115.62 124.243 119.151 115.598C127.001 97.525 135.244 84.5594 156.046 84.5594C168.612 84.5594 178.421 89.2736 176.852 101.062C175.673 109.707 171.36 114.421 163.903 115.205C161.548 115.205 152.523 115.205 155.657 106.563C156.446 103.806 157.225 101.449 152.523 101.449V101.449ZM231.413 116.772C229.058 127.774 223.956 140.739 218.853 150.171C209.828 166.281 199.227 168.244 190.201 168.244C180.779 168.244 170.184 164.71 170.184 150.171C170.184 139.956 174.497 125.417 178.424 115.988C185.102 98.6985 191.77 84.556 212.965 84.9494C237.691 84.946 233.378 107.343 231.413 116.772V116.772ZM213.751 105.77C213.361 112.448 203.546 139.166 200.406 144.667C198.837 147.417 196.872 149.381 194.124 149.381C191.377 149.381 190.201 147.417 190.201 145.45C189.811 139.559 200.795 109.697 204.725 104.589C206.294 102.232 208.252 101.839 210.217 101.839C213.361 101.842 213.751 104.199 213.751 105.77V105.77Z" fill="black"/>
<path fill-rule="evenodd" clip-rule="evenodd" d="M0.224487 0.0776367V256.339H256.224V0.0776367H0.224487V0.0776367ZM246.395 116.598C245.213 125.65 238.924 142.972 235.383 150.056C226.341 168.557 214.539 182.729 191.342 182.729C179.15 182.729 168.926 178.791 163.027 171.313C154.374 178.791 143.363 182.729 131.958 182.729C122.912 182.729 115.048 180.365 109.148 175.247C102.465 179.97 93.4191 182.729 83.5891 182.729C75.3307 182.729 67.8598 180.365 61.9605 176.036C55.6674 180.365 47.0152 182.729 37.1853 182.335C20.6685 181.941 9.26356 171.707 8.87322 156.356C8.47947 135.887 25.39 98.8821 33.645 86.2864C39.5443 76.4464 48.5902 70.9318 59.9918 70.9318C72.1842 70.9318 76.5085 74.4757 78.8676 78.8045C88.3072 70.9318 100.496 70.5377 109.542 70.5377C119.372 70.5377 125.271 72.8991 130.777 77.2279C137.854 72.8991 146.113 70.5377 155.946 70.5377C168.529 70.5377 177.968 73.6874 184.652 79.9869C192.123 73.6874 201.562 70.9318 212.577 70.9318C226.731 70.9318 235.774 76.0489 241.283 83.5308C249.147 94.1591 247.576 105.182 246.395 116.598Z" fill="#CC2229"/>
</g>
<defs>
<clipPath id="clip0_1_15">
<rect width="256" height="256" fill="white"/>
</clipPath>
</defs>
</svg>
