<svg width="73" height="28" viewBox="0 0 73 28" fill="none" xmlns="http://www.w3.org/2000/svg">
<path fill-rule="evenodd" clip-rule="evenodd" d="M40.7134 12.9145C39.4857 12.4559 38.5162 12.0955 38.5162 11.3341C38.5162 10.6323 39.0649 10.178 39.9131 10.178C40.6115 10.178 41.3447 10.5129 41.9932 10.8072C42.4292 11.0056 42.8392 11.1933 43.0843 11.1933C43.8369 11.1933 44.3423 10.4916 44.3423 9.83678C44.3423 8.32032 41.8848 7.51196 40.1126 7.51196C37.4056 7.51196 35.5141 9.10308 35.5141 11.3831C35.5141 13.6951 37.7136 14.5099 39.4814 15.1668C40.6961 15.6168 41.657 15.9752 41.657 16.7217C41.657 17.5492 41.1798 17.9011 40.0649 17.9011C39.1387 17.9011 38.5075 17.5513 37.9524 17.2421C37.4663 16.9733 37.0086 16.7174 36.4035 16.7174C35.525 16.7174 35.0716 17.6687 35.0716 18.0739C35.0716 19.4965 37.9522 20.5672 39.8176 20.5672C42.67 20.5672 44.6634 18.9654 44.6634 16.6726C44.659 14.3862 42.4704 13.5693 40.7134 12.9145" fill="#000084"/>
<path fill-rule="evenodd" clip-rule="evenodd" d="M49.4915 12.8591C49.6867 11.1955 50.9166 10.0352 52.4827 10.0352C54.1182 10.0352 55.2743 11.1166 55.4999 12.857C55.5064 12.9103 55.489 12.9658 55.4543 13.0063C55.4175 13.0468 55.3654 13.0703 55.3112 13.0703H49.6848C49.6305 13.0703 49.5783 13.0468 49.5414 13.0063C49.5026 12.9658 49.4852 12.9124 49.4915 12.8591M57.1032 16.4999C56.7628 16.4999 56.3377 16.7345 55.8429 17.0053C55.1141 17.4042 54.2074 17.9011 53.099 17.9011C51.1579 17.9011 49.8042 16.8752 49.568 15.2265C49.5593 15.1732 49.5766 15.1178 49.6135 15.0772C49.6502 15.0367 49.7025 15.0132 49.7586 15.0132H57.303C58.253 15.0132 58.6586 14.608 58.6586 13.6567C58.6586 10.7518 56.1227 7.51624 52.4876 7.51624C49.4658 7.51624 46.3404 9.96689 46.3404 14.0684C46.3404 17.8969 48.9888 20.5715 52.7823 20.5715C55.4438 20.5715 58.3634 19.1275 58.3634 17.8116C58.3615 17.1482 57.7389 16.4999 57.1032 16.4999" fill="#000084"/>
<path fill-rule="evenodd" clip-rule="evenodd" d="M66.7274 17.7558C64.7622 17.7558 63.7341 15.8981 63.7341 14.0638C63.7341 12.2616 64.6714 10.3228 66.7274 10.3228C68.6451 10.3228 69.647 12.204 69.647 14.0638C69.647 15.8981 68.6427 17.7558 66.7274 17.7558V17.7558ZM72.8014 9.73843C72.8014 8.59948 72.6886 7.65676 71.2982 7.65676C70.5262 7.65676 69.8796 8.20917 69.793 8.93861C69.7844 9.01539 69.7278 9.08151 69.6499 9.1007C69.5716 9.1199 69.4913 9.09217 69.4458 9.02819C68.7495 8.06627 67.5806 7.51385 66.2355 7.51385C63.0643 7.51385 60.5807 10.3911 60.5807 14.066C60.5807 17.8348 62.9604 20.5691 66.2355 20.5691C67.509 20.5691 68.563 20.0615 69.4545 19.0185C69.5 18.9652 69.5737 18.9396 69.6432 18.9567C69.7128 18.9716 69.7692 19.0249 69.7865 19.0932C70.0423 20.053 70.4674 20.4262 71.2962 20.4262C72.6866 20.4262 72.7992 19.4835 72.7992 18.3445V9.73843H72.8014Z" fill="#000084"/>
<path fill-rule="evenodd" clip-rule="evenodd" d="M39.6331 25.0484C39.5268 25.4238 39.1796 25.7074 38.7395 25.7074C38.1625 25.7074 37.7979 25.2702 37.7979 24.7903C37.7979 24.2784 38.1972 23.8732 38.7243 23.8732C39.1451 23.8732 39.5247 24.127 39.6353 24.545H39.288C39.1969 24.3125 38.9779 24.1824 38.7371 24.1824C38.5594 24.1803 38.4291 24.2358 38.3057 24.3509C38.2013 24.4533 38.1343 24.6154 38.1343 24.7903C38.1343 25.1465 38.3989 25.3982 38.7371 25.3982C39.0321 25.3939 39.2165 25.219 39.288 25.0484H39.6331Z" fill="#000084"/>
<path fill-rule="evenodd" clip-rule="evenodd" d="M40.198 24.7924C40.198 25.1358 40.4628 25.3939 40.8013 25.3939C41.1377 25.3939 41.4047 25.1358 41.4047 24.7882C41.4047 24.4405 41.1399 24.1824 40.8013 24.1824C40.4647 24.1824 40.198 24.4405 40.198 24.7882V24.7924ZM39.8615 24.786C39.8615 24.3232 40.2086 23.871 40.8007 23.871C41.3929 23.871 41.7399 24.3232 41.7399 24.7882C41.7399 25.2531 41.3929 25.7032 40.8007 25.7032C40.2086 25.7032 39.8615 25.2531 39.8615 24.7882V24.786Z" fill="#000084"/>
<path fill-rule="evenodd" clip-rule="evenodd" d="M42.0798 23.9245H42.3967V24.1911C42.4815 24.0119 42.6788 23.869 42.9935 23.8733C43.558 23.8797 43.7053 24.2806 43.7053 24.6411V25.6563H43.3646V24.7179C43.3646 24.4065 43.2411 24.1825 42.8982 24.1868C42.5681 24.1889 42.4162 24.3937 42.4162 24.6923V25.6563H42.0798V23.9245Z" fill="#000084"/>
<path fill-rule="evenodd" clip-rule="evenodd" d="M44.1409 23.9245H44.4577V24.1911C44.5426 24.0119 44.7399 23.869 45.0545 23.8733C45.619 23.8797 45.7664 24.2806 45.7664 24.6411V25.6563H45.4257V24.7179C45.4257 24.4065 45.3022 24.1825 44.9593 24.1868C44.6292 24.1889 44.4773 24.3937 44.4773 24.6923V25.6563H44.1409V23.9245Z" fill="#000084"/>
<path fill-rule="evenodd" clip-rule="evenodd" d="M47.5876 24.6366C47.5724 24.4084 47.338 24.1503 47.0038 24.1567C46.6606 24.1567 46.4371 24.402 46.4197 24.6366H47.5876ZM46.4162 24.8946C46.4314 25.2444 46.7435 25.4236 47.0084 25.4236C47.2448 25.4236 47.4203 25.3127 47.516 25.1314H47.865C47.7806 25.3233 47.6567 25.4662 47.5094 25.5622C47.3596 25.6603 47.186 25.7094 47.0084 25.7094C46.4314 25.7094 46.0755 25.253 46.0755 24.7944C46.0755 24.2974 46.4705 23.8751 47.0041 23.8751C47.2557 23.8751 47.4854 23.9668 47.6548 24.1289C47.863 24.3358 47.9498 24.6067 47.9192 24.8968H46.4162V24.8946Z" fill="#000084"/>
<path fill-rule="evenodd" clip-rule="evenodd" d="M49.9861 25.0484C49.8798 25.4238 49.5328 25.7074 49.0924 25.7074C48.5155 25.7074 48.1511 25.2702 48.1511 24.7903C48.1511 24.2784 48.5502 23.8732 49.0773 23.8732C49.4981 23.8732 49.8777 24.127 49.9861 24.545H49.6391C49.548 24.3125 49.3289 24.1824 49.0881 24.1824C48.9102 24.1803 48.7801 24.2358 48.6565 24.3509C48.5523 24.4533 48.4851 24.6154 48.4851 24.7903C48.4851 25.1465 48.7497 25.3982 49.0881 25.3982C49.3831 25.3939 49.5675 25.219 49.6391 25.0484H49.9861Z" fill="#000084"/>
<path fill-rule="evenodd" clip-rule="evenodd" d="M50.4401 24.1824H50.1233V23.9243H50.4401V23.2994H50.7765V23.9243H51.1172V24.1824H50.7765V25.6562H50.4401V24.1824Z" fill="#000084"/>
<path fill-rule="evenodd" clip-rule="evenodd" d="M51.3705 25.6564H51.7069V23.9245H51.3705V25.6564ZM51.3709 23.6492H51.7073V23.2994H51.3709V23.6492Z" fill="#000084"/>
<path fill-rule="evenodd" clip-rule="evenodd" d="M52.1476 23.9245H52.4644V24.1911C52.5491 24.0119 52.7466 23.869 53.0613 23.8733C53.6258 23.8797 53.7731 24.2806 53.7731 24.6411V25.6563H53.4324V24.7179C53.4324 24.4065 53.3087 24.1825 52.966 24.1868C52.6359 24.1889 52.484 24.3937 52.484 24.6923V25.6563H52.1476V23.9245Z" fill="#000084"/>
<path fill-rule="evenodd" clip-rule="evenodd" d="M54.4427 24.79C54.4427 25.1142 54.6793 25.3979 55.0526 25.3979C55.2305 25.3979 55.3803 25.3318 55.4866 25.223C55.5908 25.1185 55.6559 24.9671 55.6581 24.7986C55.6581 24.6621 55.6125 24.5064 55.5148 24.3869C55.4172 24.2653 55.2652 24.1822 55.0526 24.1822C54.7183 24.1822 54.4427 24.4274 54.4427 24.7836V24.79ZM55.9868 25.4558C55.9868 25.7586 55.9087 25.9527 55.7785 26.0999C55.6159 26.2854 55.3404 26.4155 55.0367 26.4155C54.5378 26.4155 54.2472 26.1297 54.1626 25.8397H54.5508C54.5899 25.9165 54.6571 25.9868 54.7461 26.0402C54.8523 26.1105 54.9738 26.1319 55.0497 26.1319C55.3447 26.1319 55.6484 25.9186 55.6484 25.5304V25.3512C55.5443 25.5453 55.3317 25.7074 55.0129 25.7074C54.4858 25.7074 54.1018 25.3129 54.1018 24.7967C54.1018 24.255 54.5009 23.8732 55.0129 23.8732C55.3079 23.8732 55.5508 24.0267 55.6484 24.2166V23.9244H55.9846V25.4558H55.9868Z" fill="#000084"/>
<path fill-rule="evenodd" clip-rule="evenodd" d="M57.5043 24.1824H57.1875V23.9243H57.5043V23.2994H57.8407V23.9243H58.1814V24.1824H57.8407V25.6562H57.5043V24.1824Z" fill="#000084"/>
<path fill-rule="evenodd" clip-rule="evenodd" d="M58.4325 23.2994H58.7689V23.8944V24.1653C58.8728 23.9606 59.1118 23.8689 59.3416 23.8731C59.6174 23.8731 59.7932 23.9627 59.9061 24.1141C60.0168 24.2634 60.0578 24.4703 60.0578 24.7092V25.6541H59.7173V24.7241C59.7173 24.5684 59.6891 24.4319 59.6174 24.3359C59.5393 24.24 59.4221 24.1824 59.2485 24.1824C59.0703 24.1824 58.9466 24.2485 58.8752 24.3423C58.8012 24.4341 58.7689 24.5578 58.7689 24.6772V25.6541H58.4325V23.2994Z" fill="#000084"/>
<path fill-rule="evenodd" clip-rule="evenodd" d="M61.8828 24.6366C61.8679 24.4084 61.6335 24.1503 61.2993 24.1567C60.9561 24.1567 60.7326 24.402 60.7152 24.6366H61.8828ZM60.7083 24.8946C60.7234 25.2444 61.036 25.4236 61.3004 25.4236C61.5368 25.4236 61.7125 25.3127 61.808 25.1314H62.1574C62.0726 25.3233 61.9492 25.4662 61.8015 25.5622C61.6518 25.6603 61.4785 25.7094 61.3004 25.7094C60.7234 25.7094 60.3679 25.253 60.3679 24.7944C60.3679 24.2974 60.7625 23.8751 61.2961 23.8751C61.5477 23.8751 61.7778 23.9668 61.9468 24.1289C62.155 24.3358 62.2418 24.6067 62.2117 24.8968H60.7083V24.8946Z" fill="#000084"/>
<path fill-rule="evenodd" clip-rule="evenodd" d="M63.7362 24.7899C63.7386 25.1077 63.9665 25.3978 64.355 25.3978C64.5264 25.3978 64.6846 25.3274 64.7955 25.2165C64.9082 25.1056 64.9733 24.952 64.9668 24.7793C64.9668 24.6065 64.8995 24.4572 64.789 24.3527C64.6783 24.2439 64.5264 24.1799 64.355 24.1799C63.9817 24.1799 63.7362 24.4593 63.7362 24.7857V24.7899ZM65.2857 25.656H64.9623V25.3531C64.8647 25.5322 64.6673 25.7071 64.3051 25.7071C63.752 25.7071 63.4006 25.287 63.4006 24.7879C63.4006 24.2504 63.7956 23.8729 64.2988 23.8729C64.6586 23.8729 64.8779 24.0712 64.9495 24.2077V23.9027V23.3013H65.2857V25.656Z" fill="#000084"/>
<path fill-rule="evenodd" clip-rule="evenodd" d="M65.9655 24.7924C65.9655 25.1358 66.2303 25.3939 66.5689 25.3939C66.9053 25.3939 67.1724 25.1358 67.1724 24.7882C67.1724 24.4405 66.9074 24.1824 66.5689 24.1824C66.2325 24.1824 65.9655 24.4405 65.9655 24.7882V24.7924ZM65.63 24.786C65.63 24.3232 65.977 23.871 66.5692 23.871C67.1613 23.871 67.5084 24.3232 67.5084 24.7882C67.5084 25.2531 67.1613 25.7032 66.5692 25.7032C65.977 25.7032 65.63 25.2531 65.63 24.7882V24.786Z" fill="#000084"/>
<path fill-rule="evenodd" clip-rule="evenodd" d="M67.9771 24.1824H67.6603V23.9243H67.9771V23.2994H68.3135V23.9243H68.654V24.1824H68.3135V25.6562H67.9771V24.1824Z" fill="#000084"/>
<path fill-rule="evenodd" clip-rule="evenodd" d="M69.6846 24.3763C69.6846 24.242 69.5999 24.1417 69.4285 24.1439C69.2638 24.1439 69.1726 24.2526 69.1767 24.3678C69.1832 24.5043 69.3093 24.5683 69.4982 24.6195C69.7673 24.692 70.0622 24.7688 70.0709 25.142C70.0776 25.479 69.7931 25.7094 69.4417 25.7094C69.1639 25.7094 68.8165 25.5537 68.7993 25.1591H69.1333C69.1466 25.3703 69.318 25.4385 69.4439 25.4385C69.6067 25.4385 69.7325 25.3276 69.7325 25.1804C69.728 25.0077 69.5958 24.9522 69.2811 24.8498C69.0359 24.7773 68.8403 24.6621 68.8362 24.3998C68.8362 24.0713 69.1075 23.8751 69.4285 23.8751C69.6716 23.8751 69.9884 23.9924 70.0147 24.3785H69.6846V24.3763Z" fill="#000084"/>
<mask id="mask0_211_1148" style="mask-type:alpha" maskUnits="userSpaceOnUse" x="0" y="-1" width="28" height="30">
<path fill-rule="evenodd" clip-rule="evenodd" d="M0 14.0001C0 21.7321 6.26468 28.0002 13.9926 28.0002V28.0002C21.7205 28.0002 27.9852 21.7321 27.9852 14.0001V14.0001C27.9852 6.26803 21.7205 -0.000244141 13.9926 -0.000244141V-0.000244141C6.26468 -0.000244141 0 6.26803 0 14.0001V14.0001Z" fill="white"/>
</mask>
<g mask="url(#mask0_211_1148)">
<path fill-rule="evenodd" clip-rule="evenodd" d="M-1.90366 23.7452H30.0143V-1.06641H-1.90366V23.7452Z" fill="#FF5722"/>
<path fill-rule="evenodd" clip-rule="evenodd" d="M35.9148 9.1115C33.4186 8.09199 31.014 7.60357 28.9953 7.39028C28.6073 7.33909 27.6565 7.23885 26.32 7.24311C24.9855 7.23885 24.0326 7.33909 23.6447 7.39028C21.6259 7.60357 19.2214 8.09199 16.7251 9.1115C14.3205 10.0926 12.0012 10.5832 10.0273 10.8093V10.8071C10.0273 10.8071 10.0017 10.8114 9.95052 10.8178C8.90172 10.9351 7.9531 10.9778 7.14518 10.982C6.33726 10.9778 5.38865 10.9351 4.33985 10.8178C4.29082 10.8114 4.26311 10.8071 4.26311 10.8071V10.8093C2.29127 10.5832 -0.0280358 10.0948 -2.43474 9.1115C-4.93098 8.09199 -7.33556 7.60357 -9.35429 7.39028C-9.74226 7.33909 -10.693 7.23885 -12.0296 7.24311C-13.364 7.23885 -14.3169 7.33909 -14.7049 7.39028C-16.7236 7.60357 -19.1282 8.09199 -21.6244 9.1115C-28.1624 11.7861 -34.0758 10.805 -34.0758 10.805V28.8298H48.3768V10.805C48.3768 10.805 42.4634 11.7861 35.9148 9.1115" fill="#00A54A"/>
<path fill-rule="evenodd" clip-rule="evenodd" d="M49.8672 9.1115C47.3709 8.09199 44.9663 7.60357 42.9476 7.39028C42.5596 7.33909 41.6089 7.23885 40.2721 7.24311C38.9376 7.23885 37.985 7.33909 37.5968 7.39028C35.5783 7.60357 33.1735 8.09199 30.6772 9.1115C28.2727 10.0926 25.9536 10.5832 23.9796 10.8093V10.8071C23.9796 10.8071 23.9538 10.8114 23.9029 10.8178C22.8541 10.9351 21.9054 10.9778 21.0975 10.982C20.2896 10.9778 19.341 10.9351 18.292 10.8178C18.241 10.8114 18.2155 10.8071 18.2155 10.8071V10.8093C16.2436 10.5832 13.9243 10.0948 11.5176 9.1115C9.02136 8.09199 6.61679 7.60357 4.59805 7.39028C4.21008 7.33909 3.25934 7.23885 1.92275 7.24311C0.588297 7.23885 -0.364578 7.33909 -0.752551 7.39028C-2.77128 7.60357 -5.17586 8.09199 -7.6721 9.1115C-14.2186 11.7861 -20.132 10.805 -20.132 10.805V28.8298H62.3206V10.805C62.3292 10.805 56.4137 11.7861 49.8672 9.1115" fill="#00E8FF"/>
<path fill-rule="evenodd" clip-rule="evenodd" d="M-2.65402 3.62371C-0.157784 4.64322 2.24679 5.13165 4.26553 5.34493C4.6535 5.39612 5.60424 5.49637 6.94083 5.4921C8.27528 5.49637 9.22816 5.39612 9.61613 5.34493C11.6349 5.13165 14.0394 4.64322 16.5357 3.62371C18.9402 2.6426 21.2596 2.15204 23.2335 1.92596V1.92809C23.2335 1.92809 23.2591 1.92382 23.3103 1.91742C24.3591 1.80012 25.3077 1.75746 26.1156 1.75319C26.9235 1.75746 27.8721 1.80012 28.9209 1.91742C28.97 1.92382 28.9977 1.92809 28.9977 1.92809V1.92596C30.9695 2.15204 33.2888 2.64046 35.6955 3.62371C38.1918 4.64322 40.5963 5.13165 42.6151 5.34493C43.003 5.39612 43.9538 5.49637 45.2904 5.4921C46.6248 5.49637 47.5777 5.39612 47.9655 5.34493C49.9844 5.13165 52.3888 4.64322 54.885 3.62371C61.4317 0.949104 67.3451 1.93022 67.3451 1.93022V-16.0946H-15.116V1.93022C-15.116 1.93022 -9.20052 0.949104 -2.65402 3.62371" fill="#E41E26"/>
<path fill-rule="evenodd" clip-rule="evenodd" d="M36.9539 15.0986C34.4576 14.0791 32.0531 13.5907 30.0343 13.3774C29.6464 13.3262 28.6956 13.226 27.359 13.2302C26.0244 13.226 25.0717 13.3262 24.6835 13.3774C22.665 13.5907 20.2602 14.0791 17.764 15.0986C15.3596 16.0797 13.0403 16.5703 11.0663 16.7964V16.7942C11.0663 16.7942 11.0405 16.7985 10.9896 16.8049C9.94078 16.9222 8.99216 16.9649 8.18424 16.9691C7.37632 16.9649 6.42771 16.9222 5.37891 16.8049C5.32775 16.7985 5.30217 16.7942 5.30217 16.7942V16.7964C3.33033 16.5703 1.01102 16.0819 -1.39568 15.0986C-3.89192 14.0791 -6.2965 13.5907 -8.31523 13.3774C-8.7032 13.3262 -9.65395 13.226 -10.9905 13.2302C-12.325 13.226 -13.2779 13.3262 -13.6658 13.3774C-15.6846 13.5907 -18.0891 14.0791 -20.5854 15.0986C-27.1319 17.7732 -33.0453 16.7921 -33.0453 16.7921V34.8169H49.4074V16.7921C49.4135 16.7921 43.5004 17.7711 36.9539 15.0986" fill="#478EF7"/>
<path fill-rule="evenodd" clip-rule="evenodd" d="M49.6843 21.6742C47.1881 20.6547 44.7835 20.1663 42.7647 19.953C42.3768 19.9018 41.426 19.8016 40.0894 19.8059C38.7548 19.8016 37.8021 19.9018 37.4141 19.953C35.3954 20.1663 32.9908 20.6547 30.4944 21.6742C28.09 22.6554 25.7707 23.1459 23.7967 23.372V23.3699C23.7967 23.3699 23.7712 23.3741 23.72 23.3805C22.6712 23.4978 21.7226 23.5405 20.9147 23.5448C20.1067 23.5405 19.1581 23.4978 18.1093 23.3805C18.0603 23.3741 18.0326 23.3699 18.0326 23.3699V23.372C16.0608 23.1459 13.7414 22.6575 11.3347 21.6742C8.8385 20.6547 6.43393 20.1663 4.41519 19.953C4.02722 19.9018 3.07647 19.8016 1.73989 19.8059C0.405436 19.8016 -0.54744 19.9018 -0.935412 19.953C-2.95415 20.1663 -5.35872 20.6547 -7.85496 21.6742C-14.4015 24.3489 -20.3148 23.3677 -20.3148 23.3677V41.3926H62.1378V23.3677C62.1463 23.3699 56.2329 24.3489 49.6843 21.6742" fill="#000084"/>
</g>
</svg>
